<?xml version="1.0" encoding="UTF-8" standalone="no"?>
<svg
   xmlns:dc="http://purl.org/dc/elements/1.1/"
   xmlns:cc="http://creativecommons.org/ns#"
   xmlns:rdf="http://www.w3.org/1999/02/22-rdf-syntax-ns#"
   xmlns:svg="http://www.w3.org/2000/svg"
   xmlns="http://www.w3.org/2000/svg"
   xmlns:sodipodi="http://sodipodi.sourceforge.net/DTD/sodipodi-0.dtd"
   xmlns:inkscape="http://www.inkscape.org/namespaces/inkscape"
   viewBox="0 0 56 56"
   id="2g"
   version="1.1"
   sodipodi:docname="2 sim.svg"
   inkscape:version="0.92.1 r15371">
  <metadata
     id="metadata23">
    <rdf:RDF>
      <cc:Work
         rdf:about="">
        <dc:format>image/svg+xml</dc:format>
        <dc:type
           rdf:resource="http://purl.org/dc/dcmitype/StillImage" />
        <dc:title />
      </cc:Work>
    </rdf:RDF>
  </metadata>
  <defs
     id="defs21" />
  <sodipodi:namedview
     pagecolor="#ffffff"
     bordercolor="#666666"
     borderopacity="1"
     objecttolerance="10"
     gridtolerance="10"
     guidetolerance="10"
     inkscape:pageopacity="0"
     inkscape:pageshadow="2"
     inkscape:window-width="1920"
     inkscape:window-height="1027"
     id="namedview19"
     showgrid="false"
     inkscape:zoom="7.6607143"
     inkscape:cx="9.1117988"
     inkscape:cy="30.76255"
     inkscape:window-x="-8"
     inkscape:window-y="-8"
     inkscape:window-maximized="1"
     inkscape:current-layer="layer2"
     showguides="true"
     inkscape:guide-bbox="true" />
  <g
     inkscape:groupmode="layer"
     id="layer1"
     inkscape:label="Layer 1"
     style="display:inline">
    <g
       style="fill:none;fill-rule:evenodd"
       id="g16">
      <path
         d="M 0,0 H 56 V 56 H 0 Z"
         id="path10"
         inkscape:connector-curvature="0" />
    </g>
  </g>
  <g
     inkscape:groupmode="layer"
     id="layer2"
     inkscape:label="Layer 2"
     style="display:inline">
    <g
       id="g69"
       transform="translate(-4.0255)">
      <path
         style="display:inline;fill:none;fill-rule:evenodd;stroke:#181818"
         inkscape:connector-curvature="0"
         id="path12"
         d="m 24.512,43.509 v -3.171 m 6.006,2.998 v -4.022 c 0,-1 -0.811,-1.811 -1.81,-1.811 h -4.196 v -0.096 0.096 h -5.68 m 5.68,2.835 v 3.171 h 10.497 c 0.848,0 1.534,-0.686 1.534,-1.534 V 27.043 c 0,-0.847 -0.686,-1.536 -1.534,-1.536 h -4.49 v 5 h -6.007 v -5 h 6.006 v 5 h 6.025 -6.025 v 0.213 -0.214 h -6.006 v -4.999 h -4.469 c -0.847,0 -1.535,0.689 -1.535,1.536 v 14.932 c 0,0.848 0.688,1.534 1.535,1.534 h 4.469 m -5.68,-13.003 h 5.68 V 30.72 30.506 Z M 30.615,7.5 43.112,19.94 c 0.277,0.281 0.431,0.66 0.431,1.055 V 46.28 a 2.253,2.253 0 0 1 -2.255,2.251 H 14.762 a 2.252,2.252 0 0 1 -2.254,-2.25 V 9.752 A 2.254,2.254 0 0 1 14.762,7.5 Z m -0.097,17.805 v 0.202 z m -6.006,0 v 0.202 z m 0,18.34 v -0.136 0.135 z m 0,-3.307 v -2.835 z" />
      <path
         sodipodi:nodetypes="ccccsccc"
         inkscape:connector-curvature="0"
         id="path62"
         d="M 33.808516,7.5 H 38.615 v 0 l 12.497,12.44 c 0.277,0.281 0.431,0.66 0.431,1.055 V 46.28 c -0.0011,1.244298 -1.010702,2.252105 -2.255,2.251 h -4.174917"
         style="display:inline;fill:none;fill-rule:evenodd;stroke:#181818" />
    </g>
  </g>
</svg>
