<svg xmlns="http://www.w3.org/2000/svg" viewBox="0 0 56 56" id="ethernet"><g fill="none" fill-rule="evenodd"><path d="M0 0h56v56H0z"></path><path stroke="#181818" d="M29.503 39.535h2.991v-6.538 6.538h2.99v-6.538 6.538h2.287c1.223 0 1.731-.868 1.731-1.934V21.822c0-.4-.324-.722-.724-.722h-3.713a.56.56 0 0 1-.56-.561v-3.953c0-.598-.569-1.093-1.251-1.093H22.792c-.7 0-1.253.495-1.253 1.093v3.953a.56.56 0 0 1-.56.56h-3.71c-.4 0-.724.323-.724.723v15.779c0 1.066.983 1.934 2.206 1.934h1.78v-6.538 6.538h2.99v-6.538 6.538h2.991v-6.538 6.538h2.991v-6.538 6.538zM44.078 8.573a3.392 3.392 0 0 1 3.386 3.385V44.13a3.44 3.44 0 0 1-3.431 3.431H11.965a3.43 3.43 0 0 1-3.43-3.431V12.018a3.455 3.455 0 0 1 3.446-3.445h32.097zM29.503 39.535v.48-.48zm-2.99 0v.48-.48zm-2.992 0v.48-.48zm-2.99 0v.48-.48zm14.953 0v.48-.48zm-2.99 0v.48-.48z"></path></g></svg>