<svg xmlns="http://www.w3.org/2000/svg" viewBox="0 0 56 56" id="settings"><g fill="none" fill-rule="evenodd"><path d="M0 0h56v56H0z"></path><path fill="#181818" d="M34.623 26.294c.207 0 .377.17.377.377v.66c0 .207-.17.377-.377.377h-1.819a4.829 4.829 0 0 1-.982 2.113l1.363 1.363a.378.378 0 0 1 0 .533l-.468.468a.378.378 0 0 1-.533 0l-1.382-1.382c-.61.43-1.325.707-2.096.82v2.002c0 .207-.17.377-.375.377h-.662a.38.38 0 0 1-.377-.377v-2.002a4.847 4.847 0 0 1-2.094-.82l-1.382 1.382a.378.378 0 0 1-.533 0l-.466-.468a.378.378 0 0 1 0-.533l1.361-1.361a4.836 4.836 0 0 1-.982-2.115h-1.82A.378.378 0 0 1 21 27.33v-.66c0-.207.17-.377.375-.377h1.781a4.857 4.857 0 0 1 .841-2.298l-1.18-1.178a.38.38 0 0 1 0-.535l.466-.466a.378.378 0 0 1 .533 0l1.16 1.161a4.86 4.86 0 0 1 2.316-1.003V20.38a.38.38 0 0 1 .378-.38h.662c.205 0 .375.17.375.379v1.596c.87.129 1.659.481 2.317 1.003l1.16-1.16a.378.378 0 0 1 .534 0l.468.467a.378.378 0 0 1 0 .533l-1.18 1.18a4.86 4.86 0 0 1 .839 2.296h1.779zm-6.624 3.17a2.665 2.665 0 1 0 0-5.33 2.665 2.665 0 0 0 0 5.33z"></path><path stroke="#181818" d="M19.542 8.5h17.02c1.693 0 2.938 1.346 2.938 3.04v32.64c0 1.695-.982 3.319-2.675 3.319h-17.25c-1.693 0-3.1-1.624-3.1-3.319V11.539c0-1.693 1.374-3.039 3.067-3.039z"></path><path stroke="#181818" d="M32.5 8.5v1.131c0 .415-.694.869-1 .869h-6.932c-.304 0-1.068-.454-1.068-.869V8.5h9zm1.45 36H22.01h11.94z"></path></g></svg>