<svg xmlns="http://www.w3.org/2000/svg" width="300" height="300" viewBox="0 0 300 300" fill="none">
    <path d="m 26.43343,213.39706 c -0.1298,-0.1298 -0.23599,-2.67016 -0.23599,-5.64526 v -5.40925 h 7.05555 7.05556 v -44.27361 -44.27362 h 3.86629 3.86629 l 0.10246,-2.91041 0.10246,-2.91042 22.84236,-0.0908 22.84236,-0.0908 v 3.00118 3.00118 H 96.753 99.57522 V 86.518149 59.240973 l 6.43818,0.01311 6.43821,0.01311 0.17639,-5.632455 0.17639,-5.632461 22.8336,-0.09076 22.83362,-0.09076 0.0969,5.720102 0.0969,5.720103 6.52638,0.01511 6.52639,0.01511 0.0891,71.525688 0.089,71.52569 h 3.00671 3.00672 l -0.0971,5.55625 -0.0971,5.55626 -75.52304,0.089 c -41.53767,0.0489 -75.62924,-0.0172 -75.75903,-0.14698 z m 30.7308,-19.96215 0.0987,-4.49792 h -3.7147 -3.71471 v 4.35093 c 0,2.39301 0.1112,4.46212 0.2471,4.59803 0.13591,0.13591 1.7631,0.20205 3.61598,0.14699 l 3.36886,-0.10012 z m 12.24848,0.0882 v -4.40972 h -3.70416 -3.70417 l -0.10037,4.03538 c -0.0552,2.21945 -0.0183,4.2491 0.0819,4.51032 0.13999,0.36481 1.02229,0.45162 3.80454,0.37435 l 3.62228,-0.10061 z m 12.09318,-0.0882 0.0987,-4.49792 h -3.7147 -3.71471 v 4.59845 4.59846 l 3.61597,-0.10054 3.61598,-0.10054 z m 12.24849,0.0882 v -4.40972 h -3.70417 -3.70416 l -0.10038,4.03538 c -0.0552,2.21945 -0.0183,4.2491 0.0819,4.51032 0.13999,0.36481 1.02229,0.45162 3.80454,0.37435 l 3.62228,-0.10061 z m 27.69306,-10.94845 v -7.0679 l -3.61597,0.10054 -3.61597,0.10053 -0.0957,6.96737 -0.0957,6.96736 h 3.71163 3.71162 z m 11.64167,0.0123 v -7.05557 h -3.52778 -3.52778 v 7.05556 7.05555 h 3.52778 3.52778 z m 11.64166,0.35278 c 0,-3.68653 0.0397,-6.82184 0.0882,-6.96738 0.0485,-0.14551 -1.539,-0.30981 -3.52778,-0.3651 l -3.61597,-0.10054 v 7.0679 7.06789 h 3.52778 3.52777 z m 11.91371,-0.26459 -0.0957,-6.96736 h -3.52778 -3.52778 l -0.0956,6.96736 -0.0957,6.96736 h 3.71908 3.71908 z m -99.4026,-2.38125 v -4.40973 h -3.70417 -3.70416 v 4.40973 4.40971 h 3.70416 3.70417 z m 12.34722,0 v -4.40973 h -3.88055 -3.88056 v 4.40973 4.40971 h 3.88056 3.88055 z m 11.99445,0 v -4.40973 h -3.70417 -3.70417 v 4.40973 4.40971 h 3.70417 3.70417 z m 12.26988,-0.0882 0.099,-4.32153 H 90.06102 86.1696 v 4.42166 4.42166 l 3.79237,-0.10013 3.79236,-0.10013 z M 57.24188,167.06477 v -4.58611 h -3.70417 -3.70416 v 4.58611 4.58611 h 3.70416 3.70417 z m 12.17083,0 v -4.40972 h -3.70416 -3.70417 l -0.10037,4.03537 c -0.0552,2.21946 -0.0183,4.2491 0.0819,4.51033 0.13999,0.36481 1.02229,0.45162 3.80454,0.37435 l 3.62228,-0.10061 z m 12.17084,0 v -4.58611 h -3.70417 -3.70417 v 4.58611 4.58611 h 3.70417 3.70417 z m 12.17083,0 v -4.40972 h -3.70417 -3.70416 l -0.10038,4.03537 c -0.0552,2.21946 -0.0183,4.2491 0.0819,4.51033 0.13999,0.36481 1.02229,0.45162 3.80454,0.37435 l 3.62228,-0.10061 z m 27.69306,-5.30401 v -7.0679 l -3.61597,0.10054 -3.61597,0.10054 -0.0965,6.51504 c -0.053,3.58327 -0.0183,6.71858 0.0771,6.96736 0.12521,0.32631 1.15942,0.45232 3.71241,0.45232 h 3.53885 z m 11.64167,0.0124 v -7.05556 h -3.52778 -3.52778 v 7.05556 7.05555 h 3.52778 3.52778 z m 11.64166,0 v -7.05556 h -3.52777 -3.52778 v 7.05556 7.05555 h 3.52778 3.52777 z m 11.91371,0.0882 -0.0957,-6.96736 -3.61597,-0.10054 -3.61598,-0.10054 v 7.0679 7.0679 h 3.71163 3.71162 z m -99.4026,-8.0257 v -4.40972 h -3.70417 -3.70416 v 4.40972 4.40972 h 3.70416 3.70417 z m 12.34722,0 v -4.40972 h -3.88055 -3.88056 v 4.40972 4.40972 h 3.88056 3.88055 z m 11.99445,0 v -4.40972 h -3.70417 -3.70417 v 4.40972 4.40972 h 3.70417 3.70417 z m 12.26988,0.0882 -0.099,-4.32153 -3.79236,-0.10013 -3.79236,-0.10013 v 4.42166 4.42165 h 3.89141 3.89142 z m 27.59401,-12.97693 v -7.0679 l -3.61597,0.10054 -3.61597,0.10054 -0.0965,6.51504 c -0.053,3.58327 -0.0183,6.71858 0.0771,6.96736 0.12521,0.32631 1.15942,0.45232 3.71241,0.45232 h 3.53885 z m 11.64167,0.0123 v -7.05555 h -3.52778 -3.52778 v 7.05555 7.05557 h 3.52778 3.52778 z m 11.64166,0 v -7.05555 h -3.52777 -3.52778 v 7.05555 7.05557 h 3.52778 3.52777 z m 11.99445,0 v -7.05555 h -3.70417 -3.70417 v 7.05555 7.05557 h 3.70417 3.70417 z m -99.48334,-0.17639 v -4.40972 h -3.70417 -3.70416 v 4.40972 4.40972 h 3.70416 3.70417 z m 12.26989,-0.0882 0.099,-4.32153 h -3.89142 -3.89141 v 4.17454 c 0,2.29599 0.11104,4.28557 0.24675,4.42128 0.13571,0.13572 1.84227,0.20186 3.79236,0.14699 l 3.54561,-0.0998 0.099,-4.32153 z m 12.07178,0.0882 v -4.40972 h -3.70417 -3.70417 v 4.40972 4.40973 h 3.70417 3.70417 z m 12.26988,-0.0882 0.099,-4.32153 H 90.06102 86.1696 v 4.42166 4.42166 l 3.79237,-0.10013 3.79236,-0.10013 z M 57.24188,127.37727 v -4.40972 h -3.70417 -3.70416 v 4.40972 4.40972 h 3.70416 3.70417 z m 12.34722,0 v -4.40972 h -3.88055 -3.88056 v 4.40972 4.40972 h 3.88056 3.88055 z m 11.99445,0 v -4.40972 h -3.70417 -3.70417 v 4.40972 4.40972 h 3.70417 3.70417 z m 12.26988,0.0882 -0.099,-4.32152 -3.79236,-0.10013 -3.79236,-0.10013 v 4.42165 4.42166 h 3.89141 3.89142 z m 27.59401,-7.33248 v -7.06789 l -3.61597,0.10053 -3.61597,0.10054 -0.0965,6.51504 c -0.053,3.58327 -0.0183,6.71858 0.0771,6.96736 0.12521,0.32632 1.15942,0.45232 3.71241,0.45232 h 3.53885 z m 11.64167,0.0123 v -7.05555 h -3.52778 -3.52778 v 7.05555 7.05556 h 3.52778 3.52778 z m 11.64166,0 v -7.05555 h -3.52777 -3.52778 v 7.05555 7.05556 h 3.52778 3.52777 z m 11.91371,-0.0882 0.0956,-6.96736 h -3.71162 -3.71163 v 7.06789 7.0679 l 3.61598,-0.10054 3.61597,-0.10053 z M 121.44744,99.331391 v -7.055559 h -3.70418 -3.70415 V 99.0962 c 0,3.75121 0.10583,6.92621 0.23518,7.05556 0.12935,0.12935 1.79623,0.23518 3.70417,0.23518 h 3.46898 z m 11.64167,0 v -7.055512 h -3.52778 -3.52778 v 7.055559 7.055552 h 3.52778 3.52778 z m 11.64166,0 v -7.055559 h -3.52777 -3.52778 v 7.055559 7.055549 h 3.52778 3.52777 z m 11.91371,-0.0882 0.0956,-6.967357 h -3.71162 -3.71163 v 6.820368 c 0,3.751208 0.1112,6.931568 0.24711,7.067478 0.13591,0.13591 1.7631,0.20205 3.61597,0.14699 l 3.36887,-0.10012 z m -35.27778,-20.813886 0.0957,-6.967361 h -3.71163 -3.71162 v 6.820369 c 0,3.751207 0.11119,6.931568 0.2471,7.067481 0.13591,0.135906 1.7631,0.202052 3.61598,0.146987 l 3.36886,-0.100116 z m 11.72241,0.08819 v -7.055502 h -3.52778 -3.52778 v 7.055558 7.055553 h 3.52778 3.52778 z m 11.64166,0 v -7.055557 h -3.52777 -3.52778 v 7.055557 7.055554 h 3.52778 3.52777 z m 11.91371,-0.08819 0.0956,-6.967361 h -3.71162 -3.71163 v 6.820369 c 0,3.751207 0.1112,6.931568 0.24711,7.067481 0.13591,0.135906 1.7631,0.202052 3.61597,0.146987 l 3.36887,-0.100116 z" fill="#000000"/>
</svg>