<?xml version="1.0" encoding="UTF-8" standalone="no"?>
<svg
   xmlns:dc="http://purl.org/dc/elements/1.1/"
   xmlns:cc="http://creativecommons.org/ns#"
   xmlns:rdf="http://www.w3.org/1999/02/22-rdf-syntax-ns#"
   xmlns:svg="http://www.w3.org/2000/svg"
   xmlns="http://www.w3.org/2000/svg"
   xmlns:sodipodi="http://sodipodi.sourceforge.net/DTD/sodipodi-0.dtd"
   xmlns:inkscape="http://www.inkscape.org/namespaces/inkscape"
   width="300"
   height="300"
   viewBox="0 0 300 300"
   fill="none"
   version="1.1"
   id="svg4487"
   sodipodi:docname="apart-hause.svg"
   inkscape:version="0.92.1 r15371">
  <metadata
     id="metadata4493">
    <rdf:RDF>
      <cc:Work
         rdf:about="">
        <dc:format>image/svg+xml</dc:format>
        <dc:type
           rdf:resource="http://purl.org/dc/dcmitype/StillImage" />
      </cc:Work>
    </rdf:RDF>
  </metadata>
  <defs
     id="defs4491" />
  <sodipodi:namedview
     pagecolor="#ffffff"
     bordercolor="#666666"
     borderopacity="1"
     objecttolerance="10"
     gridtolerance="10"
     guidetolerance="10"
     inkscape:pageopacity="0"
     inkscape:pageshadow="2"
     inkscape:window-width="1920"
     inkscape:window-height="1027"
     id="namedview4489"
     showgrid="false"
     inkscape:zoom="1.2942004"
     inkscape:cx="14.916462"
     inkscape:cy="189.7024"
     inkscape:window-x="-8"
     inkscape:window-y="-8"
     inkscape:window-maximized="1"
     inkscape:current-layer="svg4487" />
  <path
     d="m 74.379855,232.70668 c -0.12981,-0.1298 -0.23599,-2.67016 -0.23599,-5.64526 v -5.40925 h 7.05554 7.05556 v -44.27361 -44.27361 h 3.86629 3.86629 l 0.10246,-2.91041 0.10246,-2.91042 22.842375,-0.0908 22.84235,-0.0908 v 3.00118 3.00118 h 2.82224 2.82221 v -27.2771 -27.277169 l 6.43819,0.0131 6.4382,0.0131 0.1764,-5.63245 0.17638,-5.63246 22.8336,-0.0908 22.83362,-0.0908 0.0969,5.7201 0.0969,5.7201 6.52637,0.0151 6.52639,0.0151 0.0891,71.525679 0.089,71.52568 h 3.00671 3.00672 l -0.0971,5.55625 -0.0971,5.55626 -75.52304,0.089 c -41.53767,0.0489 -75.629235,-0.0172 -75.759025,-0.14698 z m 30.730795,-19.96215 0.0987,-4.49792 h -3.71471 -3.714715 v 4.35093 c 0,2.39301 0.1112,4.46212 0.24711,4.59803 0.13591,0.13591 1.7631,0.20205 3.615975,0.14699 l 3.36887,-0.10012 z m 12.24848,0.0882 v -4.40972 h -3.70416 -3.70416 l -0.10037,4.03538 c -0.0552,2.21945 -0.0183,4.2491 0.0819,4.51032 0.13999,0.36481 1.02229,0.45162 3.80454,0.37435 l 3.62229,-0.10061 z m 12.09318,-0.0882 0.0987,-4.49792 h -3.71469 -3.71471 v 4.59845 4.59846 l 3.61596,-0.10054 3.61598,-0.10054 z m 12.24849,0.0882 v -4.40972 h -3.70417 -3.70416 l -0.10038,4.03538 c -0.0552,2.21945 -0.0183,4.2491 0.0819,4.51032 0.13999,0.36481 1.02229,0.45162 3.80454,0.37435 l 3.62228,-0.10061 z m 27.69306,-10.94845 v -7.0679 l -3.61597,0.10054 -3.61597,0.10053 -0.0957,6.96737 -0.0957,6.96736 h 3.71164 3.71161 z m 11.64167,0.0123 v -7.05557 h -3.52778 -3.52778 v 7.05556 7.05555 h 3.52778 3.52778 z m 11.64166,0.35278 c 0,-3.68653 0.0397,-6.82184 0.0882,-6.96738 0.0485,-0.14551 -1.53899,-0.30981 -3.52778,-0.3651 l -3.61597,-0.10054 v 7.0679 7.06789 h 3.52778 3.52777 z m 11.91372,-0.26459 -0.0957,-6.96736 h -3.52778 -3.52778 l -0.0956,6.96736 -0.0957,6.96736 h 3.71908 3.71907 z m -99.4026,-2.38125 v -4.40973 h -3.70417 -3.704165 v 4.40973 4.40971 h 3.704165 3.70417 z m 12.34722,0 v -4.40973 h -3.88055 -3.88056 v 4.40973 4.40971 h 3.88056 3.88055 z m 11.99444,0 v -4.40973 h -3.70416 -3.70417 v 4.40973 4.40971 h 3.70417 3.70416 z m 12.26988,-0.0882 0.099,-4.32153 h -3.89141 -3.89142 v 4.42166 4.42166 l 3.79237,-0.10013 3.79236,-0.10013 z m -36.61154,-13.14093 v -4.58611 h -3.70418 -3.704155 v 4.58611 4.58611 h 3.704165 3.70417 z m 12.17083,0 v -4.40972 h -3.70416 -3.70417 l -0.10037,4.03537 c -0.0552,2.21946 -0.0183,4.2491 0.0819,4.51033 0.14,0.36481 1.02229,0.45162 3.80454,0.37435 l 3.62229,-0.10061 z m 12.17083,0 v -4.58611 h -3.70416 -3.70418 v 4.58611 4.58611 h 3.70418 3.70416 z m 12.17083,0 v -4.40972 h -3.70417 -3.70416 l -0.10038,4.03537 c -0.0552,2.21946 -0.0183,4.2491 0.0819,4.51033 0.13999,0.36481 1.02229,0.45162 3.80454,0.37435 l 3.62228,-0.10061 z m 27.69306,-5.30401 v -7.0679 l -3.61597,0.10054 -3.61597,0.10054 -0.0965,6.51504 c -0.053,3.58327 -0.0183,6.71858 0.0771,6.96736 0.12521,0.32631 1.15942,0.45232 3.71241,0.45232 h 3.53885 z m 11.64167,0.0124 v -7.05556 h -3.52778 -3.52778 v 7.05556 7.05555 h 3.52778 3.52778 z m 11.64166,0 v -7.05556 h -3.52777 -3.52778 v 7.05556 7.05555 h 3.52778 3.52777 z m 11.91372,0.0882 -0.0957,-6.96736 -3.61597,-0.10054 -3.61598,-0.10054 v 7.0679 7.0679 h 3.71163 3.71162 z m -99.4026,-8.0257 v -4.40972 h -3.70417 -3.704165 v 4.40972 4.40972 h 3.704165 3.70417 z m 12.34722,0 v -4.40972 h -3.88055 -3.88056 v 4.40972 4.40972 h 3.88056 3.88055 z m 11.99444,0 v -4.40972 h -3.70416 -3.70417 v 4.40972 4.40972 h 3.70417 3.70416 z m 12.26988,0.0882 -0.099,-4.32153 -3.79235,-0.10013 -3.79237,-0.10013 v 4.42166 4.42165 h 3.89141 3.89142 z m 27.59401,-12.97692 v -7.0679 l -3.61597,0.10054 -3.61597,0.10054 -0.0965,6.51504 c -0.053,3.58327 -0.0183,6.71858 0.0771,6.96736 0.12521,0.3263 1.15942,0.45231 3.71241,0.45231 h 3.53885 z m 11.64167,0.0123 v -7.05555 h -3.52778 -3.52778 v 7.05555 7.05556 h 3.52778 3.52778 z m 11.64166,0 v -7.05555 h -3.52777 -3.52778 v 7.05555 7.05556 h 3.52778 3.52777 z m 11.99445,0 v -7.05555 h -3.70417 -3.70417 v 7.05555 7.05556 h 3.70417 3.70417 z m -99.48333,-0.17639 v -4.40972 h -3.70417 -3.704165 v 4.40972 4.40972 h 3.704165 3.70417 z m 12.26989,-0.0882 0.099,-4.32153 h -3.89142 -3.89141 v 4.17454 c 0,2.29599 0.11104,4.28557 0.24675,4.42128 0.13571,0.13572 1.84227,0.20186 3.79236,0.14699 l 3.54561,-0.0998 0.099,-4.32153 z m 12.07178,0.0882 v -4.40972 h -3.70417 -3.70417 v 4.40972 4.40973 h 3.70417 3.70417 z m 12.26988,-0.0882 0.099,-4.32153 h -3.89141 -3.89142 v 4.42166 4.42166 l 3.79237,-0.10013 3.79236,-0.10013 z M 105.18831,146.6869 v -4.40972 h -3.70418 -3.704155 v 4.40972 4.40972 h 3.704165 3.70417 z m 12.34722,0 v -4.40972 h -3.88055 -3.88056 v 4.40972 4.40972 h 3.88056 3.88055 z m 11.99444,0 v -4.40972 h -3.70416 -3.70418 v 4.40972 4.40972 h 3.70418 3.70416 z m 12.26988,0.0882 -0.099,-4.32152 -3.79235,-0.10013 -3.79237,-0.10013 v 4.42165 4.42166 h 3.89141 3.89142 z m 27.59401,-7.33248 v -7.06789 l -3.61597,0.10053 -3.61597,0.10054 -0.0965,6.51504 c -0.053,3.58327 -0.0183,6.71858 0.0771,6.96736 0.12521,0.32632 1.15942,0.45232 3.71241,0.45232 h 3.53885 z m 11.64167,0.0123 v -7.05555 h -3.52778 -3.52778 v 7.05555 7.05556 h 3.52778 3.52778 z m 11.64166,0 v -7.05555 h -3.52777 -3.52778 v 7.05555 7.05556 h 3.52778 3.52777 z m 11.91372,-0.0882 0.0956,-6.96736 h -3.71161 -3.71163 v 7.06789 7.0679 l 3.61597,-0.10054 3.61597,-0.10053 z m -35.19705,-20.7257 v -7.05556 h -3.70418 -3.70414 v 6.82037 c 0,3.75121 0.10582,6.92621 0.23518,7.05556 0.12935,0.12935 1.79623,0.23518 3.70417,0.23518 h 3.46897 z m 11.64167,0 v -7.05551 h -3.52778 -3.52778 v 7.05556 7.05555 h 3.52778 3.52778 z m 11.64166,0 v -7.05556 h -3.52777 -3.52778 v 7.05556 7.05555 h 3.52778 3.52777 z m 11.91372,-0.0882 0.0956,-6.96736 h -3.71161 -3.71163 v 6.82037 c 0,3.75121 0.11119,6.93157 0.24711,7.06748 0.1359,0.13591 1.7631,0.20205 3.61597,0.14699 l 3.36887,-0.10012 z m -35.27778,-20.813879 0.0957,-6.96736 h -3.71162 -3.71163 v 6.82037 c 0,3.751209 0.11119,6.931569 0.24711,7.067479 0.1359,0.13591 1.76309,0.20206 3.61597,0.14699 l 3.36886,-0.10012 z m 11.7224,0.0882 v -7.0555 h -3.52778 -3.52778 v 7.05556 7.055549 h 3.52778 3.52778 z m 11.64166,0 v -7.05555 h -3.52777 -3.52778 v 7.05555 7.055559 h 3.52778 3.52777 z m 11.91372,-0.0882 0.0956,-6.96736 h -3.71161 -3.71163 v 6.82037 c 0,3.751209 0.11119,6.931569 0.24711,7.067479 0.1359,0.13591 1.7631,0.20206 3.61597,0.14699 l 3.36887,-0.10012 z"
     id="path4485"
     inkscape:connector-curvature="0"
     style="fill:#6e6e6e" />
</svg>
