<?xml version="1.0" encoding="UTF-8" standalone="no"?>
<!-- Created with Inkscape (http://www.inkscape.org/) -->

<svg
   xmlns:dc="http://purl.org/dc/elements/1.1/"
   xmlns:cc="http://creativecommons.org/ns#"
   xmlns:rdf="http://www.w3.org/1999/02/22-rdf-syntax-ns#"
   xmlns:svg="http://www.w3.org/2000/svg"
   xmlns="http://www.w3.org/2000/svg"
   xmlns:sodipodi="http://sodipodi.sourceforge.net/DTD/sodipodi-0.dtd"
   xmlns:inkscape="http://www.inkscape.org/namespaces/inkscape"
   version="1.1"
   id="svg2"
   width="300"
   height="300"
   viewBox="0 0 27.73815 27.73815"
   sodipodi:docname="factory.svg"
   inkscape:version="0.92.1 r15371">
  <metadata
     id="metadata8">
    <rdf:RDF>
      <cc:Work
         rdf:about="">
        <dc:format>image/svg+xml</dc:format>
        <dc:type
           rdf:resource="http://purl.org/dc/dcmitype/StillImage" />
        <dc:title />
      </cc:Work>
    </rdf:RDF>
  </metadata>
  <defs
     id="defs6" />
  <sodipodi:namedview
     pagecolor="#ffffff"
     bordercolor="#666666"
     borderopacity="1"
     objecttolerance="10"
     gridtolerance="10"
     guidetolerance="10"
     inkscape:pageopacity="0"
     inkscape:pageshadow="2"
     inkscape:window-width="1920"
     inkscape:window-height="1027"
     id="namedview4"
     showgrid="false"
     inkscape:zoom="1.0635172"
     inkscape:cx="89.07708"
     inkscape:cy="176.74321"
     inkscape:window-x="-8"
     inkscape:window-y="-8"
     inkscape:window-maximized="1"
     inkscape:current-layer="svg2" />
  <path
     style="fill:#6e6e6e;fill-opacity:1;stroke-width:0.03528783"
     d="m 5.0599596,22.543928 c -0.177094,-0.05332 -0.3287292,-0.17159 -0.4164718,-0.32482 l -0.086875,-0.151718 -0.00937,-4.281646 c -0.00633,-2.887488 0.00259,-4.326111 0.027392,-4.418198 0.020223,-0.07511 0.07914,-0.186905 0.1309255,-0.248449 0.0986,-0.11718 4.2429074,-2.899557 4.4439828,-2.983572 0.2814787,-0.11761 0.6352898,-0.0125 0.8109953,0.240925 l 0.1009806,0.145649 0.0102,1.158761 0.0102,1.15876 h 0.263526 0.263528 l 1.952645,-1.30208 c 1.073955,-0.716144 2.018047,-1.335446 2.097982,-1.376226 0.372035,-0.1897977 0.847881,0.01488 0.958217,0.412158 0.02135,0.07689 0.03653,0.573305 0.03664,1.19869 l 1.98e-4,1.067458 h 0.688112 0.688113 v 2.47603 c 0,1.361817 0.008,2.467958 0.01793,2.45809 0.0099,-0.0099 0.270924,-2.869053 0.580126,-6.353746 0.373479,-4.2090821 0.578901,-6.3758107 0.611985,-6.4549884 0.06428,-0.153856 0.27006,-0.3336051 0.439069,-0.383536 0.08919,-0.026352 0.504336,-0.035581 1.262126,-0.028057 1.112658,0.011045 1.131155,0.012419 1.261853,0.093679 0.07295,0.045358 0.175289,0.1552419 0.227415,0.2441871 l 0.09477,0.1617185 0.359471,5.7723898 c 0.197709,3.174814 0.435795,7.003787 0.52908,8.50883 l 0.16961,2.73644 -0.07934,0.163892 c -0.06316,0.130457 -0.116311,0.182317 -0.260572,0.254205 l -0.181234,0.09031 -8.45333,-0.0031 c -4.649323,-0.0016 -8.4967678,-0.01608 -8.5498681,-0.03207 z M 8.0324645,18.750334 V 17.709342 H 7.3267078 6.620951 v 1.040992 1.040991 h 0.7057568 0.7057567 z m 3.4582095,0 V 17.709342 H 10.784916 10.07916 v 1.040992 1.040991 h 0.705756 0.705758 z m 3.485206,0.0088 -0.0094,-1.032168 -0.696935,-0.0096 -0.696935,-0.0096 v 1.041738 1.041736 h 0.706291 0.706289 z M 8.0324645,15.292126 V 14.251134 H 7.3267078 6.620951 v 1.040992 1.040991 h 0.7057568 0.7057567 z m 3.4582095,0 V 14.251134 H 10.784916 10.07916 v 1.040992 1.040991 h 0.705756 0.705758 z m 3.485206,-0.0088 0.0094,-1.03217 h -0.70632 -0.70629 v 1.041737 1.041737 l 0.696934,-0.0096 0.696936,-0.0096 z"
     id="path4487"
     inkscape:connector-curvature="0" />
</svg>
