<svg xmlns="http://www.w3.org/2000/svg" width="330" height="330" viewBox="0 0 330 330" fill="none">
    <path d="m 26.203781,146.62464 c -0.0246,-28.87783 -0.0942,-52.554682 -0.15475,-52.615232 -0.0605,-0.0606 -0.81812,0.16658 -1.68348,0.50472 -0.86535,0.33815 -1.6423,0.61482 -1.72654,0.61482 -0.27086,0 -3.48826,-7.73649 -3.48826,-8.38779 0,-0.23798 -0.0837,-0.19665 6.40271,-3.16212 10.76701,-4.9225 76.990099,-34.79776 77.981589,-35.17988 0.41872,-0.16138 2.94196,0.94364 30.3454,13.28944 45.79827,20.63305 54.85568,24.7717 54.85568,25.06556 0,0.48804 -3.0031,7.87573 -3.39673,8.35604 -0.0306,0.0373 -0.80643,-0.21962 -1.72416,-0.57089 -0.91773,-0.35127 -1.71786,-0.58944 -1.77805,-0.52925 -0.0602,0.0602 -0.12941,23.736752 -0.15382,52.614582 l -0.0444,52.50514 h -8.73772 -8.73772 V 146.00456 92.879338 H 103.77038 43.377221 v 53.125222 53.12522 h -8.5644 -8.5644 z m 41.42224,52.341 c -1.34323,-0.10252 -1.48404,-0.15024 -1.93609,-0.65617 -0.26813,-0.30009 -0.57509,-0.84178 -0.68215,-1.20376 -0.10751,-0.36354 -0.26224,-3.02073 -0.34564,-5.93606 -0.14678,-5.13053 -0.26763,-6.48555 -0.78711,-8.82536 -0.89882,-4.04855 -2.15614,-12.3622 -2.15233,-14.23172 0.004,-2.01015 0.80276,-4.96065 1.74496,-6.44635 0.28836,-0.45469 0.46088,-0.8843 0.3834,-0.9547 -0.0775,-0.0704 -0.90175,-0.37827 -1.8317,-0.68415 -2.2402,-0.73685 -3.19156,-1.38538 -3.81658,-2.60175 -0.39913,-0.77677 -0.47248,-1.10071 -0.39891,-1.76189 0.18097,-1.62644 1.46248,-3.21779 2.91145,-3.61537 0.73913,-0.2028 5.32872,-0.1284 7.61192,0.12341 l 0.98309,0.10842 0.24318,-0.58538 c 0.13374,-0.32196 0.61552,-1.94812 1.07061,-3.61369 1.44839,-5.3009 3.33738,-11.45699 4.00199,-13.04222 1.74875,-4.1711 3.53719,-4.95736 13.05098,-5.73767 4.40389,-0.3612 20.586049,-0.52767 26.995219,-0.27772 7.77785,0.30334 13.06451,1.01877 15.30593,2.07132 1.48424,0.69698 2.07574,1.26286 2.70545,2.58822 0.80279,1.68965 2.54601,7.07495 3.96046,12.23499 0.67831,2.47456 1.375,4.88856 1.54819,5.36443 0.36602,1.00572 -0.2272,0.9234 5.03261,0.6984 3.6983,-0.1582 4.33307,-0.0522 5.38677,0.89979 1.37882,1.24567 1.83253,2.87087 1.20041,4.29988 -0.66081,1.49388 -1.40653,2.02189 -4.11947,2.9168 -0.78421,0.25868 -1.46011,0.5258 -1.502,0.59359 -0.0419,0.0678 0.29622,1.05451 0.75137,2.19272 1.15625,2.8915 1.29396,3.58218 1.17114,5.87396 -0.12118,2.26109 -0.436,4.49311 -1.26957,9.00095 -1.49175,8.06718 -1.45718,7.78065 -1.618,13.41109 -0.0869,3.04357 -0.2362,5.56671 -0.35259,5.96011 -0.23334,0.78868 -0.98514,1.56199 -1.67721,1.7252 -0.26401,0.0623 -2.9184,0.16058 -5.89864,0.21847 l -5.41862,0.10526 -0.67557,-0.65968 c -1.12833,-1.10179 -1.2061,-1.40717 -1.2061,-4.73656 v -2.95889 H 103.94344 79.890001 v 2.93052 c 0,1.61179 -0.0757,3.12967 -0.16826,3.37308 -0.0925,0.2434 -0.49181,0.79356 -0.88726,1.22259 l -0.71902,0.78003 -4.52042,-0.0268 c -2.48624,-0.0147 -5.17229,-0.0765 -5.96902,-0.13735 z m 10.39871,-18.10741 c 1.06012,-0.74509 1.51282,-1.63515 1.51633,-2.98126 0.003,-1.24539 -0.13332,-1.58416 -1.01263,-2.51206 -0.8393,-0.88567 -1.3977,-1.1538 -2.40288,-1.1538 -1.83216,0 -3.50566,1.42455 -3.77376,3.21238 -0.19529,1.30229 0.85015,3.08256 2.22088,3.78189 0.9047,0.46157 2.53459,0.29766 3.45206,-0.34715 z m 55.026599,0.44065 c 0.35297,-0.098 0.89045,-0.42691 1.19438,-0.73085 0.65314,-0.65314 1.36113,-2.09234 1.36351,-2.77176 0.004,-1.14071 -1.02335,-2.60429 -2.28427,-3.25423 -0.76581,-0.39473 -2.20044,-0.43752 -2.87076,-0.0856 -0.53943,0.28318 -1.63454,1.39653 -1.91772,1.94965 -0.28304,0.55288 -0.23815,2.41742 0.074,3.07534 0.74901,1.5784 2.58948,2.33165 4.44081,1.81747 z M 77.328781,153.27494 c 6.65888,-1.28379 13.30572,-1.85319 23.586349,-2.0205 11.67758,-0.19005 21.15441,0.44638 29.28537,1.96672 1.35475,0.25331 2.5106,0.41315 2.56855,0.35519 0.19256,-0.19256 -3.57373,-13.70272 -4.54197,-16.2926 -0.1742,-0.46596 -0.51141,-0.98838 -0.74934,-1.16093 -0.50505,-0.36626 -2.42162,-0.70802 -6.40272,-1.14173 -2.51178,-0.27364 -4.56226,-0.31106 -17.04506,-0.31106 -14.816159,0 -16.720599,0.0717 -21.025119,0.79207 -1.09452,0.18316 -2.20173,0.37754 -2.46046,0.43195 -0.43323,0.0911 -0.5314,0.28606 -1.24166,2.46576 -1.34629,4.13157 -4.25678,14.41439 -4.2577,15.04248 -3.5e-4,0.28675 0.19133,0.27606 2.28376,-0.12735 z m -28.85771,-34.4915 c -0.0477,-0.12425 -0.0647,-1.19498 -0.0378,-2.37939 l 0.0489,-2.15348 1.29785,-0.11688 c 1.77645,-0.15997 33.11004,-0.23787 74.799259,-0.18595 l 34.73904,0.0433 v 2.50917 2.50918 h -55.38025 c -45.399549,0 -55.395869,-0.0407 -55.466939,-0.22591 z m -0.0368,-10.8058 0.0479,-2.55243 16.17982,-0.0904 c 8.89891,-0.0497 33.87599,-0.0571 55.504609,-0.0165 l 39.32477,0.0739 v 2.02814 c 0,1.11547 0.0487,2.27148 0.10816,2.56891 l 0.10815,0.54077 H 104.04697 48.386321 Z m -0.0387,-8.609062 v -2.50917 h 55.547869 55.54786 v 2.50917 2.509172 H 103.94344 48.395571 Z" fill="#000000"/>
</svg>
