<?xml version="1.0" encoding="UTF-8" standalone="no"?>
<svg
   xmlns:dc="http://purl.org/dc/elements/1.1/"
   xmlns:cc="http://creativecommons.org/ns#"
   xmlns:rdf="http://www.w3.org/1999/02/22-rdf-syntax-ns#"
   xmlns:svg="http://www.w3.org/2000/svg"
   xmlns="http://www.w3.org/2000/svg"
   xmlns:sodipodi="http://sodipodi.sourceforge.net/DTD/sodipodi-0.dtd"
   xmlns:inkscape="http://www.inkscape.org/namespaces/inkscape"
   id="svg8"
   version="1.1"
   viewBox="0 0 210 297"
   height="300"
   width="300"
   sodipodi:docname="hause.svg"
   inkscape:version="0.92.1 r15371">
  <sodipodi:namedview
     pagecolor="#ffffff"
     bordercolor="#666666"
     borderopacity="1"
     objecttolerance="10"
     gridtolerance="10"
     guidetolerance="10"
     inkscape:pageopacity="0"
     inkscape:pageshadow="2"
     inkscape:window-width="1920"
     inkscape:window-height="1027"
     id="namedview4560"
     showgrid="false"
     inkscape:zoom="0.78666667"
     inkscape:cx="150"
     inkscape:cy="150"
     inkscape:window-x="-8"
     inkscape:window-y="-8"
     inkscape:window-maximized="1"
     inkscape:current-layer="svg8" />
  <defs
     id="defs2" />
  <metadata
     id="metadata5">
    <rdf:RDF>
      <cc:Work
         rdf:about="">
        <dc:format>image/svg+xml</dc:format>
        <dc:type
           rdf:resource="http://purl.org/dc/dcmitype/StillImage" />
        <dc:title />
      </cc:Work>
    </rdf:RDF>
  </metadata>
  <g
     style="display:inline"
     id="layer3"
     transform="matrix(1.3220738,0,0,1.3220738,-38.115176,-37.650332)">
    <path
       id="path4531"
       d="m 62.198998,202.10677 c -2.581314,-0.5225 -3.616302,-1.25481 -4.580799,-3.24115 L 57.03661,197.66786 56.9582,172.13557 c -0.04313,-14.04276 -0.0054,-25.93283 0.0838,-26.4224 0.203294,-1.1155 1.934564,-2.99725 4.606945,-5.00737 1.101238,-0.82833 2.825308,-2.22151 3.831267,-3.09596 2.738914,-2.38083 5.499997,-4.63243 5.682377,-4.63386 0.08884,-8e-4 0.637773,-0.44441 1.219856,-0.98602 0.582083,-0.54161 2.487083,-2.14628 4.233333,-3.56594 1.74625,-1.41965 3.65125,-2.99072 4.233333,-3.49127 2.355985,-2.02596 6.102461,-5.12582 7.634206,-6.31661 0.894416,-0.69533 2.619213,-2.12408 3.832881,-3.175 1.213667,-1.05093 2.838296,-2.39049 3.610284,-2.97681 0.771988,-0.58633 2.501641,-2.01508 3.843671,-3.175 1.342027,-1.15993 3.348807,-2.80967 4.459507,-3.66609 1.1107,-0.85642 2.35601,-1.83869 2.76735,-2.18282 1.03426,-0.86524 1.70834,-0.78649 3.13722,0.36651 0.67627,0.5457 1.97208,1.5875 2.87957,2.3151 0.90748,0.72761 2.49511,2.05939 3.52806,2.95952 1.03294,0.90014 2.61687,2.20982 3.51983,2.91042 0.90296,0.7006 3.10562,2.49902 4.89479,3.99649 1.78918,1.49748 4.38414,3.65691 5.76659,4.79874 1.38244,1.14184 3.16838,2.62388 3.96875,3.29343 0.80036,0.66955 2.05052,1.68867 2.77812,2.26472 0.72761,0.57606 2.45401,2.00346 3.83646,3.17201 1.38245,1.16856 3.64463,3.00572 5.02708,4.08258 1.38245,1.07687 3.34698,2.70328 4.36563,3.61424 1.01864,0.91096 2.74505,2.32065 3.83646,3.13265 1.0914,0.812 2.66898,2.14101 3.50573,2.95335 l 1.52135,1.47698 v 26.19978 c 0,29.48454 0.11366,27.77149 -1.97,29.69213 -1.65022,1.52112 -2.88432,1.71142 -11.02142,1.69952 -3.72555,-0.005 -7.02953,-0.0911 -7.34219,-0.19033 l -0.56847,-0.18043 v -20.88425 c 0,-20.53148 -0.009,-20.89319 -0.52917,-21.41342 -0.51172,-0.51172 -0.88194,-0.52917 -11.22589,-0.52917 -9.37152,0 -10.74824,0.0515 -11.1125,0.41577 -0.37089,0.37089 -0.41578,2.6504 -0.41578,21.1161 0,16.8831 -0.0654,20.78973 -0.3545,21.18514 -0.33918,0.46386 -1.45388,0.48606 -25.789804,0.51359 -19.099651,0.0216 -25.833501,-0.0518 -27.033926,-0.29482 z m 22.843567,-19.6187 c 0.378954,-0.31507 0.436753,-1.05482 0.436753,-5.59 0,-4.11648 -0.07742,-5.29112 -0.364427,-5.52932 -0.254079,-0.21086 -2.03663,-0.28076 -5.886979,-0.23083 l -5.522553,0.0716 -0.07143,5.62897 -0.07143,5.62897 0.600593,0.24941 c 0.975276,0.40502 10.354381,0.20776 10.879466,-0.22881 z m 14.045569,0.23738 0.678683,-0.25803 v -5.37759 c 0,-3.82979 -0.09138,-5.46897 -0.3175,-5.69509 -0.488833,-0.48883 -10.888551,-0.44551 -11.297351,0.0471 -0.210597,0.25376 -0.28076,1.99932 -0.230833,5.74295 l 0.07173,5.37838 0.661458,0.1838 c 1.028005,0.28567 9.67277,0.26787 10.433817,-0.0215 z M 85.161818,168.11391 c 0.225485,-0.22549 0.3175,-1.83025 0.3175,-5.53735 0,-4.39254 -0.0659,-5.28575 -0.415775,-5.63563 -0.349877,-0.34988 -1.243084,-0.41577 -5.635625,-0.41577 -3.707106,0 -5.311864,0.092 -5.53735,0.3175 -0.343376,0.34337 -0.476099,11.07737 -0.14111,11.41236 0.334986,0.33499 11.068983,0.20226 11.41236,-0.14111 z m 14.186484,0.1569 c 0.362974,-0.13929 0.418515,-0.8872 0.418515,-5.63563 0,-3.90557 -0.09101,-5.56604 -0.3175,-5.79252 -0.448762,-0.44877 -10.822487,-0.44877 -11.27125,0 -0.448762,0.44876 -0.448762,10.82248 0,11.27125 0.335336,0.33533 10.339062,0.47585 11.170235,0.1569 z M 43.38355,145.86873 c -0.740265,-0.49591 -2.510803,-2.50363 -6.996328,-7.93358 -0.985895,-1.19347 0.01706,-2.48825 4.792211,-6.18658 1.154364,-0.89404 2.991813,-2.42415 4.083219,-3.40023 1.091406,-0.97608 2.297319,-1.97279 2.679806,-2.21492 0.382487,-0.24214 2.227956,-1.77026 4.101041,-3.39584 1.873086,-1.62558 4.144589,-3.52878 5.047785,-4.22932 0.903195,-0.70055 2.697163,-2.19366 3.986594,-3.31801 1.28943,-1.12436 2.872172,-2.41889 3.5172,-2.87674 0.645031,-0.45784 1.351375,-1.0387 1.569657,-1.2908 0.342119,-0.39512 11.53183,-9.76577 16.256933,-13.614111 0.881343,-0.717806 2.870748,-2.384681 4.420902,-3.704167 9.37919,-7.983536 15.11354,-12.560076 16.78899,-13.399175 2.80767,-1.406132 6.33298,-1.477652 9.1382,-0.185394 0.77927,0.35898 2.27003,1.355699 3.31281,2.214931 1.04278,0.859232 2.66851,2.193452 3.61274,2.964934 0.94422,0.771481 2.29369,1.933665 2.99882,2.58263 0.70514,0.648965 1.80129,1.565566 2.4359,2.03689 0.63461,0.471324 2.12289,1.690748 3.30729,2.70983 5.7346,4.93417 7.38813,6.216914 8.01399,6.216914 0.29228,0 0.35717,-1.513263 0.35717,-8.329021 0,-9.631528 0.0838,-10.114869 1.87796,-10.832752 1.46792,-0.587344 17.75641,-0.62253 19.14734,-0.04136 1.79286,0.749104 1.72887,0.01005 1.72887,19.966521 0,10.21373 0.10444,18.26228 0.24166,18.62319 0.23387,0.61513 3.47521,3.55018 7.22534,6.54259 1.00303,0.80036 2.91493,2.39681 4.24867,3.54765 1.33374,1.15084 3.51465,2.95993 4.84646,4.0202 3.26217,2.59704 4.92154,4.56498 4.14151,4.91166 -0.10914,0.0485 -0.39745,0.51913 -0.6407,1.04584 -0.72145,1.56216 -5.65142,7.25759 -6.72188,7.76555 -1.32865,0.63049 -1.95724,0.31512 -5.76742,-2.8936 -1.7337,-1.46003 -3.46241,-2.88696 -3.84156,-3.17097 -0.37916,-0.284 -2.31408,-1.89135 -4.29983,-3.57187 -1.98576,-1.68053 -4.48607,-3.76787 -5.55625,-4.63855 -1.07019,-0.87067 -2.72397,-2.2711 -3.67508,-3.11206 -0.95111,-0.84096 -2.38987,-2.03359 -3.19724,-2.65029 -0.80737,-0.6167 -2.99354,-2.43096 -4.85815,-4.03169 -1.86462,-1.60073 -3.71731,-3.14854 -4.1171,-3.43958 -0.3998,-0.29104 -3.89741,-3.20807 -7.77248,-6.48229 -3.87506,-3.27422 -7.73472,-6.48891 -8.577,-7.14375 -0.84229,-0.65485 -2.69646,-2.20266 -4.12039,-3.43958 -1.42392,-1.23693 -3.11434,-2.665681 -3.75649,-3.175004 -0.64214,-0.509322 -1.95016,-1.551119 -2.9067,-2.315104 -0.95654,-0.763984 -1.94427,-1.389062 -2.19495,-1.389062 -0.25069,0 -1.2231,0.629907 -2.16092,1.399794 -0.93782,0.769887 -1.966,1.579857 -2.28485,1.799933 -0.31886,0.220076 -2.13847,1.754066 -4.043588,3.408863 -1.905121,1.6548 -3.804113,3.25585 -4.219985,3.55788 -0.415872,0.30204 -2.520598,2.03743 -4.677169,3.85645 -2.156574,1.81901 -5.354513,4.5077 -7.106536,5.97486 -1.752023,1.46717 -3.483152,2.91801 -3.846954,3.22409 -0.363802,0.30608 -1.852084,1.53798 -3.307292,2.73756 -1.455208,1.19957 -3.187901,2.66576 -3.850428,3.2582 -0.662527,0.59244 -2.21034,1.86689 -3.439583,2.83212 -1.229244,0.96523 -3.068426,2.49664 -4.087072,3.40314 -1.018646,0.90649 -2.732045,2.3128 -3.807552,3.12514 -1.075508,0.81233 -2.325664,1.84778 -2.778125,2.30099 -0.452461,0.45322 -2.132344,1.88689 -3.733073,3.18594 -1.600729,1.29905 -4.149033,3.41909 -5.662897,4.71119 -2.42573,2.07039 -3.981903,3.08218 -4.740519,3.08218 -0.128674,0 -0.638514,-0.27102 -1.132977,-0.60226 z"
       style="fill:#000000;stroke-width:0.26458332"
       inkscape:connector-curvature="0" />
  </g>
</svg>
