<?xml version="1.0" encoding="UTF-8" standalone="no"?>
<svg
   xmlns:dc="http://purl.org/dc/elements/1.1/"
   xmlns:cc="http://creativecommons.org/ns#"
   xmlns:rdf="http://www.w3.org/1999/02/22-rdf-syntax-ns#"
   xmlns:svg="http://www.w3.org/2000/svg"
   xmlns="http://www.w3.org/2000/svg"
   id="svg8"
   version="1.1"
   viewBox="0 0 210 297"
   height="300"
   width="300">
  <defs
     id="defs2" />
  <metadata
     id="metadata5">
    <rdf:RDF>
      <cc:Work
         rdf:about="">
        <dc:format>image/svg+xml</dc:format>
        <dc:type
           rdf:resource="http://purl.org/dc/dcmitype/StillImage" />
        <dc:title></dc:title>
      </cc:Work>
    </rdf:RDF>
  </metadata>
  <g
     style="display:inline"
     id="layer1">
    <path
       id="path4496"
       transform="matrix(0.99,0,0,0.99,-43.5,0)"
       d="m 114.95117,106.01758 c -39.044961,-10e-4 -58.960936,0.13096 -58.960936,0.39258 0,0.21729 -0.461406,0.39648 -1.02539,0.39648 -1.35463,0 -3.067646,1.04203 -3.81836,2.32422 -0.728416,1.24412 -2.372618,7.74151 -3.441406,13.59375 -1.871158,10.24567 -2.855683,22.1217 -2.738281,33.03906 0.06772,6.29772 0.04539,6.49787 -0.773438,6.80078 -0.81412,0.30117 -0.84375,0.53804 -0.84375,6.71289 0,3.51994 0.195889,7.52616 0.435547,8.90235 l 0.435547,2.50195 2.033203,0.58398 c 4.121069,1.1829 7.886557,1.81656 8.304688,1.39844 0.241572,-0.24156 2.916909,-0.40429 6.646484,-0.40429 h 6.242188 v -2.08985 c 0,-10.4574 9.633156,-18.75817 19.630859,-16.91601 5.124541,0.94423 9.989631,4.43154 12.162109,8.71875 1.123156,2.21644 2.162486,6.39555 2.173826,8.74023 l 0.008,1.41602 34.07226,0.26367 c 18.74009,0.14435 42.11745,0.26158 51.94922,0.26172 h 17.875 l 0.008,-1.48047 c 0.0114,-2.47095 1.07808,-6.72292 2.20899,-8.80078 1.28509,-2.36113 4.87868,-5.88329 7.22461,-7.08008 3.73107,-1.90346 12.33921,-2.64134 16.47851,-1.41211 2.48937,0.73926 4.95185,2.83452 6.03125,5.13086 0.73537,1.56454 0.83971,2.50194 0.84375,7.61523 0.003,3.2072 0.11623,6.24522 0.25195,6.75196 0.23515,0.8782 0.35865,0.90786 2.66016,0.64648 2.93469,-0.33327 8.70734,-1.77174 11.80273,-2.94141 2.6916,-1.01708 3.43194,-2.12325 3.74805,-5.60937 0.16861,-1.85939 0.0717,-2.46497 -0.49023,-3.08594 -0.6161,-0.6808 -0.64102,-0.97295 -0.21094,-2.46289 0.98887,-3.42579 0.95476,-4.53206 -0.21484,-6.84375 -0.60471,-1.19519 -1.20485,-2.00195 -1.33399,-1.79297 -0.4011,0.64899 -2.364,1.21875 -4.19531,1.21875 h -1.75195 l -0.0723,-2.27148 c -0.10133,-3.18584 0.0311,-4.50996 0.50586,-5.08203 0.62957,-0.75859 4.02943,-1.39047 4.39453,-0.81641 0.48586,0.76394 0.34792,-0.0585 -0.23828,-1.42187 -0.17828,-0.41462 -0.44209,-0.83599 -0.7832,-1.2754 H 53.916016 v -5.43554 l 191.685544,0.10351 c -0.34801,-0.23424 -0.5973,-0.41979 -0.97656,-0.66992 -6.36011,-4.19462 -7.87926,-5.03857 -10.87891,-6.04492 -1.404,-0.47103 -2.86742,-1.13975 -3.2539,-1.48633 -0.0211,-0.0189 -0.0536,-0.0309 -0.0762,-0.0488 0.002,-0.0337 -1.16657,-1.29928 -2.69727,-2.9414 -0.31655,-0.38073 -0.77067,-0.89639 -1.45313,-1.55274 -3.37405,-3.60128 -7.75073,-8.22566 -9.49023,-9.96875 -2.87404,-2.87996 -12.10408,-11.18618 -12.54492,-11.49023 0.0499,-0.0477 -0.27947,-0.41163 -0.88672,-0.95703 -5.38519,-4.83658 -10.42939,-5.12985 -88.39258,-5.13086 z m 139.375,55.27148 c 0.13124,-0.13125 -0.73163,-6.37693 -0.8457,-6.66211 0.24214,2.07742 0.56769,4.24905 0.8457,6.66211 z m -50.22656,-49.19922 c 0.002,-0.009 0.0128,-0.008 0.0332,0.002 0.0539,0.0271 0.0622,0.0153 0.0801,0.0117 0.0415,0.0507 0.0781,0.10071 0.29102,0.29101 1.85661,1.65962 9.32229,8.64125 11.87695,11.20117 2.91166,2.91769 13.8046,14.33762 14.02734,14.45899 -0.4952,-0.38904 -1.33068,-0.55059 -2.68164,-0.5 l -2.0625,0.0762 -1.76562,-2.63672 c -0.97083,-1.4498 -2.58203,-3.54013 -3.58008,-4.64648 -0.99805,-1.10636 -2.80712,-3.2681 -4.02148,-4.80469 -1.21437,-1.5366 -4.58192,-5.25914 -7.48243,-8.27149 -2.71921,-2.8241 -4.74134,-5.0497 -4.71484,-5.18164 z m -20.96094,0.17969 c 3.49629,-0.0506 15.04816,0.7044 15.42578,1.08203 0.29678,0.29678 2.4316,24.35405 2.21485,24.95899 -0.0973,0.27158 -0.49379,0.47198 -0.88086,0.44531 -14.65804,-1.01472 -16.03577,-1.17194 -17.11914,-1.94336 -0.60808,-0.43298 -1.28495,-1.36197 -1.50196,-2.06445 -0.21702,-0.70251 -0.51323,-5.5651 -0.66015,-10.80664 -0.2852,-10.17935 -0.18403,-10.92993 1.57226,-11.59766 0.11461,-0.0436 0.44975,-0.067 0.94922,-0.0742 z m 18.60938,3.625 c 0.22186,0.002 10.03998,10.22424 12.13867,12.63867 l 1.20117,1.38282 -0.52344,2.96289 c -0.28803,1.62955 -0.52997,4.58585 -0.53906,6.57031 -0.0148,3.40152 -0.0663,3.62309 -0.9043,3.84766 -1.02302,0.27408 -0.96972,0.27631 -2.27148,-0.1211 -1.32869,-0.40564 -3.80181,-1.74219 -5.72852,-3.0957 -1.1416,-0.80197 -1.61305,-1.4346 -1.69921,-2.2793 -0.66086,-6.48264 -1.83948,-21.90726 -1.67383,-21.90625 z M 46.222656,141.17578 h 2.916016 2.916016 l -0.105469,9.77734 -0.107422,9.77735 -3.060547,0.11523 -3.0625,0.11524 v -8.06055 c 0,-4.43298 0.113783,-8.8845 0.251953,-9.89258 z m 38.210938,24.3086 c -3.253318,-0.0123 -4.04228,0.12434 -5.925782,1.02343 -3.049876,1.45582 -5.178628,3.44741 -6.664062,6.23438 -4.52237,8.48483 -0.01794,18.60539 9.330078,20.96484 2.401152,0.60607 6.582394,0.17356 8.992188,-0.92969 2.858672,-1.30874 5.721017,-4.05593 7.136718,-6.85156 1.048506,-2.07049 1.15625,-2.65066 1.15625,-6.23437 0,-3.50506 -0.123048,-4.19771 -1.082031,-6.15039 -1.40679,-2.86451 -4.124069,-5.58643 -6.939453,-6.95118 -1.964426,-0.95226 -2.729225,-1.09355 -6.003906,-1.10546 z m 137.873046,0 c -3.26543,-0.0123 -4.04796,0.12481 -6.01953,1.04882 -9.05047,4.24162 -11.21661,16.17597 -4.20703,23.18555 1.81004,1.81004 4.54941,3.37861 6.96484,3.98828 2.40116,0.60606 6.58239,0.17355 8.99219,-0.92969 2.86436,-1.31136 5.86383,-4.18974 7.20117,-6.91211 0.97149,-1.9776 1.09173,-2.65893 1.0918,-6.17382 8e-5,-3.53324 -0.11748,-4.18891 -1.11328,-6.2168 -1.42305,-2.89793 -4.01142,-5.48149 -6.89063,-6.87695 -1.98152,-0.96039 -2.73886,-1.10137 -6.01953,-1.11328 z m -137.966796,4.95117 c 1.275939,0.007 2.57835,0.31027 3.875,0.91406 4.767536,2.21998 6.645169,7.6722 4.277344,12.42383 -1.198636,2.40534 -2.932656,3.85934 -5.535157,4.64258 -2.004962,0.6034 -2.855369,0.63738 -4.695312,0.18945 -7.190543,-1.75054 -9.468983,-10.88779 -3.929688,-15.76367 1.827791,-1.60889 3.881247,-2.41819 6.007813,-2.40625 z m 137.933596,0.004 c 1.26093,0.0176 2.54516,0.32002 3.8125,0.91016 4.76753,2.21998 6.64517,7.6722 4.27734,12.42383 -1.19861,2.40535 -2.93267,3.85934 -5.53516,4.64258 -2.00497,0.6034 -2.85537,0.63738 -4.69531,0.18945 -4.28383,-1.0429 -6.98666,-4.5929 -6.96484,-9.14844 0.0134,-2.80218 0.9974,-4.88821 3.19531,-6.76953 1.77387,-1.51835 3.80861,-2.27739 5.91016,-2.24805 z m -0.48047,1.01563 c -2.35309,0.10712 -4.6896,1.22236 -6.30274,3.51758 -2.84759,4.05165 -1.09806,10.28714 3.44336,12.26562 1.70726,0.74375 4.88351,0.65725 6.73438,-0.18359 3.23501,-1.46964 5.29426,-5.15116 4.75781,-8.50586 -0.74303,-4.64671 -4.711,-7.27228 -8.63281,-7.09375 z m -137.904298,0.0195 c -2.365236,0.1355 -4.719725,1.29123 -6.361328,3.62695 -1.036642,1.47497 -1.188241,2.03304 -1.189453,4.35547 -0.0013,2.27245 0.172613,2.94617 1.183593,4.58008 0.779237,1.25936 1.781014,2.22939 2.925782,2.83398 5.819791,3.07363 13.124716,-1.94822 12.105468,-8.32226 -0.750378,-4.69262 -4.722003,-7.30006 -8.664062,-7.07422 z m 0.210937,0.97851 c 0.07181,-0.0114 0.151209,-0.0105 0.236329,0.006 0.380233,0.0732 0.691406,0.38268 0.691406,0.6875 0,0.62369 -0.697234,0.9766 -1.111328,0.5625 -0.474891,-0.47488 -0.319059,-1.17582 0.183593,-1.25586 z m 137.871091,0 c 0.0718,-0.0114 0.15121,-0.0105 0.23633,0.006 0.38023,0.0732 0.69141,0.38267 0.69141,0.6875 0,0.62369 -0.69723,0.97659 -1.11133,0.5625 -0.47488,-0.47489 -0.31906,-1.17581 0.18359,-1.25586 z m -142.027341,1.90626 c 0.346121,-1e-5 0.544613,0.27715 0.470703,0.6582 -0.153878,0.79345 -0.943442,1.12504 -1.300781,0.54687 -0.347341,-0.56201 0.09619,-1.20507 0.830078,-1.20507 z m 137.871091,0 c 0.34612,-1e-5 0.54465,0.27716 0.47071,0.6582 -0.15388,0.79345 -0.94149,1.12504 -1.29883,0.54687 -0.34734,-0.56201 0.0942,-1.20507 0.82812,-1.20507 z m 9.22071,0.0117 c 0.22832,0.0254 0.44993,0.13364 0.57617,0.33789 0.26884,0.43501 -0.73845,1.32015 -1.09571,0.9629 -0.14303,-0.14298 -0.25976,-0.49545 -0.25976,-0.78516 0,-0.36782 0.39876,-0.55803 0.7793,-0.51563 z m -138.183598,0.0684 c 0.296659,-0.0326 0.602809,0.0403 0.761719,0.19922 0.250283,0.25027 0.189938,0.54739 -0.171875,0.84766 -0.432237,0.35865 -0.666994,0.32923 -1.048828,-0.13086 -0.40136,-0.48361 -0.369539,-0.63991 0.171875,-0.84766 0.09125,-0.035 0.188223,-0.0575 0.287109,-0.0684 z m -4.490234,2.67969 c 1.91438,0.086 3.528217,2.49549 1.837891,4.36328 -0.94749,1.04692 -2.617996,0.98509 -3.671875,-0.13672 -1.07147,-1.14052 -1.096313,-2.40369 -0.06836,-3.43164 0.593718,-0.59371 1.264218,-0.82359 1.902344,-0.79492 z m 137.882812,0.006 c 2.29593,0 3.41222,2.9917 1.64844,4.41992 -0.48578,0.39337 -1.29547,0.71485 -1.79883,0.71485 -1.02884,0 -2.55273,-1.68236 -2.55273,-2.81836 0,-1.09573 1.42434,-2.31641 2.70312,-2.31641 z m -138.121093,1.27148 c -0.09608,0.003 -0.190283,0.0213 -0.277344,0.0547 -0.719688,0.27618 -0.79989,2.09016 -0.103515,2.33985 0.689188,0.24712 1.876953,-0.42641 1.876953,-1.06446 0,-0.67259 -0.82351,-1.35032 -1.496094,-1.33008 z m 137.871093,0 c -0.0961,0.003 -0.18833,0.0213 -0.27539,0.0547 -0.71969,0.27617 -0.79989,2.09017 -0.10352,2.33985 0.6892,0.24713 1.875,-0.42641 1.875,-1.06446 0,-0.6726 -0.82351,-1.35032 -1.49609,-1.33008 z m -144.017578,0.48829 c 0.06514,-0.002 0.127265,0.0113 0.181641,0.0449 0.192658,0.11907 0.349609,0.47206 0.349609,0.78515 0,0.58072 -0.842483,0.78058 -1.3125,0.31055 -0.312596,-0.31259 0.325251,-1.12317 0.78125,-1.14062 z m 13.03711,0 c 0.06514,-0.002 0.127265,0.0113 0.18164,0.0449 0.192657,0.11907 0.34961,0.47206 0.34961,0.78515 0,0.58072 -0.842485,0.78058 -1.3125,0.31055 -0.312598,-0.31259 0.32525,-1.12317 0.78125,-1.14062 z m 124.835938,0 c 0.0651,-0.002 0.12531,0.0113 0.17969,0.0449 0.19264,0.11907 0.35156,0.47206 0.35156,0.78515 0,0.58071 -0.84444,0.78059 -1.31445,0.31055 -0.3126,-0.31259 0.3272,-1.12317 0.7832,-1.14062 z m 13.03516,0 c 0.0651,-0.002 0.12726,0.0113 0.18164,0.0449 0.19265,0.11907 0.34961,0.47206 0.34961,0.78515 0,0.58071 -0.84248,0.78059 -1.3125,0.31055 -0.31259,-0.31259 0.32525,-1.12317 0.78125,-1.14062 z m -148.941411,4.56054 c 0.346121,0 0.544613,0.27716 0.470703,0.65821 -0.153878,0.79344 -0.943442,1.12505 -1.300781,0.54687 -0.347341,-0.56202 0.09619,-1.20508 0.830078,-1.20508 z m 9.033203,0 c 0.329206,0 0.59375,0.35013 0.59375,0.78907 10e-7,0.43893 -0.264544,0.79101 -0.59375,0.79101 -0.329205,0 -0.591796,-0.35208 -0.591796,-0.79101 0,-0.43894 0.262591,-0.78907 0.591796,-0.78907 z m 128.837888,0 c 0.34612,0 0.54465,0.27716 0.47071,0.65821 -0.15388,0.79344 -0.94149,1.12504 -1.29883,0.54687 -0.34734,-0.56202 0.0942,-1.20508 0.82812,-1.20508 z m 9.03516,0 c 0.3292,0 0.5918,0.35012 0.5918,0.78907 0,0.43892 -0.2626,0.79101 -0.5918,0.79101 -0.3292,0 -0.59375,-0.35209 -0.59375,-0.79101 0,-0.43895 0.26455,-0.78907 0.59375,-0.78907 z m -142.750001,2.04492 c 0.07181,-0.0114 0.151209,-0.0105 0.236329,0.006 0.380233,0.0732 0.691406,0.38268 0.691406,0.6875 0,0.62369 -0.697234,0.97658 -1.111328,0.5625 -0.474891,-0.47489 -0.319059,-1.17582 0.183593,-1.25586 z m 137.871091,0 c 0.0718,-0.0114 0.15121,-0.0105 0.23633,0.006 0.38023,0.0732 0.69141,0.38268 0.69141,0.6875 0,0.6237 -0.69723,0.97657 -1.11133,0.5625 -0.47488,-0.4749 -0.31906,-1.17582 0.18359,-1.25586 z"
       style="display:inline;fill:#6e6e6e;stroke-width:0.39504787;fill-opacity:1" />
  </g>
</svg>
