<?xml version="1.0" encoding="UTF-8" standalone="no"?>
<svg
   xmlns:dc="http://purl.org/dc/elements/1.1/"
   xmlns:cc="http://creativecommons.org/ns#"
   xmlns:rdf="http://www.w3.org/1999/02/22-rdf-syntax-ns#"
   xmlns:svg="http://www.w3.org/2000/svg"
   xmlns="http://www.w3.org/2000/svg"
   xmlns:sodipodi="http://sodipodi.sourceforge.net/DTD/sodipodi-0.dtd"
   xmlns:inkscape="http://www.inkscape.org/namespaces/inkscape"
   id="svg8"
   version="1.1"
   viewBox="0 0 210 297"
   height="300"
   width="300"
   sodipodi:docname="kiosk.svg"
   inkscape:version="0.92.1 r15371">
  <sodipodi:namedview
     pagecolor="#ffffff"
     bordercolor="#666666"
     borderopacity="1"
     objecttolerance="10"
     gridtolerance="10"
     guidetolerance="10"
     inkscape:pageopacity="0"
     inkscape:pageshadow="2"
     inkscape:window-width="1920"
     inkscape:window-height="1027"
     id="namedview5502"
     showgrid="false"
     inkscape:zoom="1.1125147"
     inkscape:cx="66.503837"
     inkscape:cy="180.94519"
     inkscape:window-x="-8"
     inkscape:window-y="-8"
     inkscape:window-maximized="1"
     inkscape:current-layer="svg8" />
  <defs
     id="defs2" />
  <metadata
     id="metadata5">
    <rdf:RDF>
      <cc:Work
         rdf:about="">
        <dc:format>image/svg+xml</dc:format>
        <dc:type
           rdf:resource="http://purl.org/dc/dcmitype/StillImage" />
        <dc:title />
      </cc:Work>
    </rdf:RDF>
  </metadata>
  <g
     id="g6101"
     transform="matrix(1.2718982,0,0,1.2718982,-23.370263,13.973371)">
    <g
       id="layer3"
       style="display:inline">
      <path
         style="display:inline;fill:#000000;stroke:#0000f5;stroke-width:0.065;stroke-linecap:butt;stroke-linejoin:miter;stroke-miterlimit:4;stroke-dasharray:none;stroke-opacity:1"
         d="m 11.475885,83.752324 5.245165,-1.252826 3.324164,0.417608 1.787365,-0.517835 3.908817,-1.23612 3.674955,-0.968851 18.208648,-4.404865 16.725448,-3.118306 22.867559,-4.063243 17.386904,-2.929316 19.14088,-2.539407 17.70661,-2.33861 15.56845,-1.603615 c 0,0 -0.40091,-1.670437 -0.13364,-1.737252 0.26727,-0.06682 13.02939,-2.138159 13.02939,-2.138159 l 3.34087,2.806333 -0.0668,3.741771 17.3057,18.909319 0.40091,11.292138 -4.14268,0.334087 1.46998,53.787995 -12.22758,6.74855 0.13364,1.06908 -2.93997,1.40316 -3.87541,-0.20045 -0.0668,1.00226 -12.82894,-0.60135 -17.37252,-0.93545 -19.37704,-1.06907 -21.916102,-1.46999 -36.281836,-2.47224 -18.842503,-1.26953 -21.448379,-1.67043 h -3.207234 l 0.06682,-1.1359 -2.004521,-0.0668 -5.078122,-0.4009 z"
         id="path4518"
         inkscape:connector-curvature="0" />
    </g>
    <g
       id="layer2"
       style="display:inline">
      <path
         style="fill:#ffffff;stroke:#ffffff;stroke-width:0.26458332px;stroke-linecap:butt;stroke-linejoin:miter;stroke-opacity:1"
         d="m 17.372519,94.844009 0.06682,0.935445 4.009042,-0.968854 7.483546,-1.536798 6.214018,-1.135896 9.354433,-1.703842 4.610399,-0.80181 11.292139,-1.77066 6.381059,-0.868627 7.14946,-0.968851 6.080381,-0.835218 7.182869,-0.902034 7.550364,-1.002263 13.129611,-1.46998 14.49937,-1.503391 10.99146,-1.102487 11.32555,-1.035669 10.42351,-0.868627 2.73951,-0.23386 -0.10022,-1.436574 -3.24065,0.167042 -13.73097,1.236123 -20.14544,2.037929 -6.11379,0.634765 -12.16076,1.369758 -16.370259,2.00452 -6.614919,0.935443 -12.661895,1.804069 -12.828936,2.004523 -11.659635,1.904294 -13.296659,2.505654 z"
         id="path4536"
         inkscape:connector-curvature="0" />
      <path
         style="fill:#000000;stroke:#ffffff;stroke-width:1.5;stroke-linecap:butt;stroke-linejoin:miter;stroke-miterlimit:4;stroke-dasharray:none;stroke-opacity:1"
         d="m 19.654761,98.4908 14.741072,-1.742495 v 33.386205 l -14.741072,-0.0697 z"
         id="path4568"
         inkscape:connector-curvature="0" />
      <path
         style="display:inline;fill:#000000;stroke:#ffffff;stroke-width:1.5;stroke-linecap:butt;stroke-linejoin:miter;stroke-miterlimit:4;stroke-dasharray:none;stroke-opacity:1"
         d="m 53.200149,94.895923 19.65476,-1.934239 V 130.0217 l -19.65476,-0.0774 z"
         id="path4568-0"
         inkscape:connector-curvature="0" />
      <path
         style="display:inline;fill:#000000;stroke:#ffffff;stroke-width:1.5;stroke-linecap:butt;stroke-linejoin:miter;stroke-miterlimit:4;stroke-dasharray:none;stroke-opacity:1"
         d="m 76.067709,92.226395 23.056547,-2.086603 v 39.578438 l -23.056547,-0.0835 z"
         id="path4568-0-2"
         inkscape:connector-curvature="0" />
      <path
         style="display:inline;fill:#000000;stroke:#ffffff;stroke-width:1.5;stroke-linecap:butt;stroke-linejoin:miter;stroke-miterlimit:4;stroke-dasharray:none;stroke-opacity:1"
         d="m 127.85044,86.792612 30.63041,-3.830186 v 46.835054 l -30.63041,-0.0948 z"
         id="path4568-0-2-3"
         inkscape:connector-curvature="0" />
      <path
         style="fill:#000000;fill-opacity:1;stroke:#fffffd;stroke-width:1.49368596;stroke-linecap:butt;stroke-linejoin:miter;stroke-miterlimit:4;stroke-dasharray:none;stroke-opacity:1"
         d="m 37.136159,104.22023 v 41.88399 l 13.134671,0.5622 v -43.85169 z"
         id="path4619"
         inkscape:connector-curvature="0" />
      <path
         style="display:inline;fill:#000000;fill-opacity:1;stroke:#fffffd;stroke-width:1.5;stroke-linecap:butt;stroke-linejoin:miter;stroke-miterlimit:4;stroke-dasharray:none;stroke-opacity:1"
         d="m 102.43155,97.149699 v 53.011161 l 21.73363,1.41741 V 94.59836 Z"
         id="path4619-2"
         inkscape:connector-curvature="0" />
      <path
         style="display:inline;fill:#000000;fill-opacity:1;stroke:#fffffd;stroke-width:1.18618822;stroke-linecap:butt;stroke-linejoin:miter;stroke-miterlimit:4;stroke-dasharray:none;stroke-opacity:1"
         d="m 36.975811,103.49899 0.16035,26.45277 13.134671,-0.0548 0.160346,-27.26322 z"
         id="path4619-0"
         inkscape:connector-curvature="0" />
      <path
         style="display:inline;fill:#000000;fill-opacity:1;stroke:#fffffd;stroke-width:1.18422496;stroke-linecap:butt;stroke-linejoin:miter;stroke-miterlimit:4;stroke-dasharray:none;stroke-opacity:1"
         d="m 102.43155,96.188569 v 33.775991 l 21.73363,-0.052 V 94.59835 Z"
         id="path4619-2-2"
         inkscape:connector-curvature="0" />
      <path
         style="fill:none;stroke:#ffffff;stroke-width:0.66500002;stroke-linecap:butt;stroke-linejoin:miter;stroke-miterlimit:4;stroke-dasharray:none;stroke-opacity:1"
         d="m 159.22247,97.735675 12.2606,-0.850445 3.45407,1.224369"
         id="path4777"
         inkscape:connector-curvature="0" />
      <path
         style="display:inline;fill:none;stroke:#ffffff;stroke-width:0.66500002;stroke-linecap:butt;stroke-linejoin:miter;stroke-miterlimit:4;stroke-dasharray:none;stroke-opacity:1"
         d="m 159.40361,111.87882 12.92206,-0.51971 2.93436,0.23218"
         id="path4777-1"
         inkscape:connector-curvature="0" />
      <path
         style="display:inline;fill:none;stroke:#ffffff;stroke-width:0.66500002;stroke-linecap:butt;stroke-linejoin:miter;stroke-miterlimit:4;stroke-dasharray:none;stroke-opacity:1"
         d="m 159.21135,83.693261 12.2606,-0.85045 2.9816,1.838581"
         id="path4777-4"
         inkscape:connector-curvature="0" />
      <path
         style="display:inline;fill:none;stroke:#ffffff;stroke-width:0.66500002;stroke-linecap:butt;stroke-linejoin:miter;stroke-miterlimit:4;stroke-dasharray:none;stroke-opacity:1"
         d="m 159.54208,125.97935 13.11105,-0.28349 2.8871,-0.14579"
         id="path4777-13"
         inkscape:connector-curvature="0" />
      <path
         style="display:inline;fill:none;stroke:#ffffff;stroke-width:0.66500002;stroke-linecap:butt;stroke-linejoin:miter;stroke-miterlimit:4;stroke-dasharray:none;stroke-opacity:1"
         d="m 159.82556,139.91721 13.25279,0.23624 2.9816,-0.61826"
         id="path4777-6"
         inkscape:connector-curvature="0" />
      <path
         style="display:inline;fill:none;stroke:#ffffff;stroke-width:0.66500002;stroke-linecap:butt;stroke-linejoin:miter;stroke-miterlimit:4;stroke-dasharray:none;stroke-opacity:1"
         d="m 157.95121,70.173485 12.78032,-1.606402 2.79261,2.311051"
         id="path4777-4-9"
         inkscape:connector-curvature="0" />
      <path
         style="display:inline;fill:none;stroke:#ffffff;stroke-width:0.66500002;stroke-linecap:butt;stroke-linejoin:miter;stroke-miterlimit:4;stroke-dasharray:none;stroke-opacity:1"
         d="m 11.485436,100.69506 5.192763,-0.37798 2.976562,0.18493"
         id="path4777-4-0"
         inkscape:connector-curvature="0" />
      <path
         style="display:inline;fill:none;stroke:#ffffff;stroke-width:0.66500002;stroke-linecap:butt;stroke-linejoin:miter;stroke-miterlimit:4;stroke-dasharray:none;stroke-opacity:1"
         d="m 11.520871,91.995979 5.157328,-0.767768 1.759951,0.149495"
         id="path4777-4-0-8"
         inkscape:connector-curvature="0" />
      <path
         style="display:inline;fill:none;stroke:#ffffff;stroke-width:0.66500002;stroke-linecap:butt;stroke-linejoin:miter;stroke-miterlimit:4;stroke-dasharray:none;stroke-opacity:1"
         d="m 11.435323,109.37715 5.242876,-0.27775 2.976562,0.18493"
         id="path4777-4-0-3"
         inkscape:connector-curvature="0" />
      <path
         style="display:inline;fill:none;stroke:#ffffff;stroke-width:0.66500002;stroke-linecap:butt;stroke-linejoin:miter;stroke-miterlimit:4;stroke-dasharray:none;stroke-opacity:1"
         d="m 11.485436,118.26533 5.192763,0.0472 c 0.992187,0.0616 3.200549,-0.14398 2.976562,-0.0823"
         id="path4777-4-0-5"
         inkscape:connector-curvature="0" />
      <path
         style="display:inline;fill:none;stroke:#ffffff;stroke-width:0.66500002;stroke-linecap:butt;stroke-linejoin:miter;stroke-miterlimit:4;stroke-dasharray:none;stroke-opacity:1"
         d="m 11.343695,127.14777 5.334504,0.0472 2.976562,0.18493"
         id="path4777-4-0-54"
         inkscape:connector-curvature="0" />
      <path
         style="display:inline;fill:none;stroke:#ffffff;stroke-width:0.66500002;stroke-linecap:butt;stroke-linejoin:miter;stroke-miterlimit:4;stroke-dasharray:none;stroke-opacity:1"
         d="m 11.154707,136.26645 5.523492,0.18898 2.976562,-0.24029"
         id="path4777-4-0-2"
         inkscape:connector-curvature="0" />
      <path
         style="fill:none;stroke:#ffffff;stroke-width:1.5;stroke-linecap:butt;stroke-linejoin:miter;stroke-miterlimit:4;stroke-dasharray:none;stroke-opacity:1"
         d="m 39.288619,121.80482 -0.06681,6.34765 v -0.0668"
         id="path4876"
         inkscape:connector-curvature="0" />
      <path
         style="display:inline;fill:none;stroke:#ffffff;stroke-width:1.5;stroke-linecap:butt;stroke-linejoin:miter;stroke-miterlimit:4;stroke-dasharray:none;stroke-opacity:1"
         d="m 105.11081,121.46903 -0.0668,6.34765 v -0.0668"
         id="path4876-1"
         inkscape:connector-curvature="0" />
    </g>
  </g>
</svg>
