<?xml version="1.0" encoding="UTF-8" standalone="no"?>
<!-- Created with Inkscape (http://www.inkscape.org/) -->

<svg
   xmlns:dc="http://purl.org/dc/elements/1.1/"
   xmlns:cc="http://creativecommons.org/ns#"
   xmlns:rdf="http://www.w3.org/1999/02/22-rdf-syntax-ns#"
   xmlns:svg="http://www.w3.org/2000/svg"
   xmlns="http://www.w3.org/2000/svg"
   xmlns:sodipodi="http://sodipodi.sourceforge.net/DTD/sodipodi-0.dtd"
   xmlns:inkscape="http://www.inkscape.org/namespaces/inkscape"
   version="1.1"
   id="svg4485"
   width="300"
   height="300"
   viewBox="0 0 384 384"
   sodipodi:docname="school.svg"
   inkscape:version="0.92.1 r15371">
  <metadata
     id="metadata4491">
    <rdf:RDF>
      <cc:Work
         rdf:about="">
        <dc:format>image/svg+xml</dc:format>
        <dc:type
           rdf:resource="http://purl.org/dc/dcmitype/StillImage" />
        <dc:title></dc:title>
      </cc:Work>
    </rdf:RDF>
  </metadata>
  <defs
     id="defs4489" />
  <sodipodi:namedview
     pagecolor="#ffffff"
     bordercolor="#666666"
     borderopacity="1"
     objecttolerance="10"
     gridtolerance="10"
     guidetolerance="10"
     inkscape:pageopacity="0"
     inkscape:pageshadow="2"
     inkscape:window-width="1920"
     inkscape:window-height="1027"
     id="namedview4487"
     showgrid="false"
     inkscape:zoom="1.1171875"
     inkscape:cx="163.25273"
     inkscape:cy="204.67561"
     inkscape:window-x="-8"
     inkscape:window-y="-8"
     inkscape:window-maximized="1"
     inkscape:current-layer="svg4485" />
  <path
     style="display:inline;fill:#6e6e6e;stroke-width:0.31999999;fill-opacity:1"
     d="m 19.633251,351.68234 c -0.377712,-0.15242 -1.157813,-0.8633 -1.733557,-1.57972 C 17.119746,349.13206 16.621811,348.8 15.946443,348.8 H 15.04 v -6.88 c 0,-6.5689 0.02776,-6.88 0.613828,-6.88 1.09024,0 1.629808,-0.36998 2.603492,-1.78518 1.108434,-1.61104 2.254589,-2.05028 5.357226,-2.05303 1.715148,0 2.132192,-0.11942 2.806158,-0.79341 l 0.791612,-0.79161 -0.01885,-61.2857 c -0.01354,-44.0083 0.08043,-61.47121 0.333299,-61.94371 0.515203,-0.96267 1.760067,-1.3401 3.148221,-0.95452 0.757817,0.21049 15.089959,0.31897 41.005015,0.31037 l 39.839999,-0.0132 2.4,-0.75496 c 1.32,-0.41523 3.22666,-0.85067 4.23703,-0.96764 1.30265,-0.15082 2.28004,-0.51324 3.36,-1.24589 0.83763,-0.56826 2.18311,-1.41416 2.98994,-1.87976 0.80684,-0.46561 4.72547,-4.13047 8.70808,-8.14414 17.69345,-17.83147 34.93118,-35.10475 38.31035,-38.38938 2.02103,-1.96448 5.89568,-5.89775 8.61034,-8.7406 5.25106,-5.49904 6.23535,-6.26526 7.45344,-5.80214 0.70817,0.26924 10.32189,9.83301 44.95584,44.72224 8.41224,8.47424 15.94298,15.81824 16.73498,16.32 0.792,0.50176 2.04316,1.36512 2.78036,1.91859 1.03213,0.77488 1.80482,1.05697 3.36,1.22663 1.1108,0.12118 3.16045,0.57383 4.55478,1.0059 l 2.53514,0.78557 41.46203,-0.0377 c 40.97735,-0.0372 41.46695,-0.0303 41.88238,0.5954 0.34368,0.51761 0.41561,11.7521 0.39437,61.59187 -0.0192,44.89405 0.0699,61.16918 0.33776,61.75711 0.50371,1.10548 1.57276,1.5089 3.99852,1.5089 1.14138,0 2.545,0.19629 3.11917,0.43619 1.17639,0.49152 3.65962,3.15011 3.92317,4.20019 0.0952,0.37933 0.12794,3.3664 0.0727,6.63796 l -0.10038,5.94825 -0.96803,1.19501 c -0.53239,0.65728 -1.46615,1.46218 -2.07501,1.7887 -1.07427,0.57616 -6.02845,0.59309 -167.67197,0.57341 -93.057249,-0.0112 -166.868063,-0.14256 -167.251738,-0.29737 z M 204.06877,330.46867 c 0.53429,-0.53437 0.57671,-1.86816 0.65603,-20.62397 0.0811,-19.18684 0.0577,-20.13624 -0.54369,-21.98867 -0.34566,-1.06482 -0.77881,-2.78499 -0.96254,-3.82261 -0.36272,-2.04844 -0.74691,-2.77106 -2.82688,-5.31704 -1.28166,-1.56881 -4.60062,-4.45723 -5.95433,-5.18192 -0.94635,-0.50662 -5.26817,-1.19157 -7.55736,-1.19774 -6.33009,-0.0171 -11.01912,2.70902 -15.10777,8.78328 -1.39878,2.07809 -1.55478,2.51755 -2.15818,6.08 -0.61125,3.6088 -0.64571,5.00249 -0.57223,23.14782 l 0.0782,19.30783 0.90765,0.78061 0.90766,0.7806 16.28112,-0.0884 c 15.13343,-0.0822 16.32138,-0.12874 16.85234,-0.65978 z M 81.565098,308.35203 c 0.369222,-0.33439 0.815315,-1.12639 0.991321,-1.76 0.460432,-1.65753 0.424803,-20.25975 -0.04076,-21.28155 C 81.755466,283.64203 80.922179,283.52 70.289482,283.52 H 60.51569 l -0.897847,0.7719 -0.897843,0.7719 -0.09625,10.19328 c -0.10959,11.60581 -0.0032,12.3688 1.85625,13.30959 1.010333,0.51119 2.064586,0.55818 10.766893,0.48 8.959462,-0.0805 9.694733,-0.12999 10.318205,-0.69464 z m 54.419102,0.34991 c 2.18635,-0.75625 2.25848,-1.14253 2.31935,-12.41951 0.0298,-5.52334 -0.0545,-10.36801 -0.18735,-10.76594 -0.13286,-0.39793 -0.69935,-0.97393 -1.25888,-1.28 -0.88959,-0.48662 -2.21896,-0.56877 -10.58801,-0.65431 -7.03112,-0.0719 -9.82243,0.006 -10.51937,0.29512 -1.71224,0.70924 -1.82999,1.494 -1.82944,12.19242 6.4e-4,13.92778 -0.81122,13.05761 12.1595,13.03172 5.94476,-0.0119 9.15827,-0.14149 9.9042,-0.3995 z m 122.16681,-0.11708 c 1.92885,-0.9153 2.02299,-1.48499 2.04768,-12.39181 0.0246,-10.87732 -0.0582,-11.35276 -2.12967,-12.21826 -1.6434,-0.68666 -18.50855,-0.65786 -20.23907,0.0346 -2.27081,0.9086 -2.30995,1.11176 -2.30995,11.99166 0,11.07559 0.0744,11.46733 2.37572,12.51255 1.168,0.53049 2.23543,0.59312 10.21592,0.59941 7.67647,0.006 9.06794,-0.0671 10.03937,-0.52811 z m 55.9422,-0.50539 c 1.26568,-1.47221 1.42313,-2.81502 1.425,-12.15299 0.002,-7.44503 -0.0819,-9.08261 -0.51787,-10.1723 -0.87106,-2.17697 -1.15541,-2.23418 -11.10445,-2.23418 -4.82674,0 -9.21406,0.0876 -9.74959,0.19474 -0.53554,0.10711 -1.45354,0.59532 -2.04,1.08493 l -1.0663,0.89018 v 10.41161 c 0,10.00572 0.0256,10.44595 0.65766,11.29247 1.18154,1.58255 2.04136,1.69687 12.25045,1.62873 l 9.3881,-0.0627 z M 81.833139,261.99273 82.72,261.10546 v -10.64681 c 0,-9.71858 -0.05028,-10.72354 -0.576736,-11.52701 -0.317203,-0.48411 -0.918547,-1.01016 -1.336317,-1.169 -0.417769,-0.15884 -5.176749,-0.31462 -10.575507,-0.3462 l -9.81593,-0.0574 -0.847753,0.8473 -0.847757,0.84729 -0.09891,10.15319 c -0.0544,5.58426 -0.0089,10.63728 0.101207,11.22894 0.110064,0.59167 0.549766,1.42541 0.97712,1.85276 l 0.777005,0.77701 10.234924,-0.0928 10.234925,-0.0928 z m 54.136891,0.62921 c 0.59951,-0.21007 1.37313,-0.76388 1.71915,-1.23069 0.59542,-0.8033 0.62796,-1.38934 0.60738,-10.94224 -0.0242,-11.25055 -0.10008,-11.69874 -2.12268,-12.54384 -1.41074,-0.58944 -19.58679,-0.71626 -20.65584,-0.14412 -1.45975,0.78123 -1.59804,1.85611 -1.59804,12.42092 0,10.60578 0.12439,11.59617 1.55394,12.37278 1.11799,0.60736 18.78917,0.66528 20.49609,0.0672 z m 122.09899,-0.0367 c 2.08681,-0.87192 2.17196,-1.36034 2.13437,-12.24213 -0.0364,-10.53444 -0.15735,-11.37398 -1.79324,-12.44585 -0.75714,-0.4961 -1.81426,-0.54582 -10.34673,-0.48661 -10.6062,0.0736 -10.89773,0.12907 -11.98292,2.28027 -0.49581,0.98283 -0.55956,2.20948 -0.56,10.77405 -3.2e-4,6.96598 0.10938,9.90611 0.39298,10.52855 0.22663,0.49739 0.93904,1.11143 1.68,1.44803 1.14732,0.52119 2.26573,0.58518 10.3368,0.59145 7.11033,0.006 9.28359,-0.0904 10.13874,-0.44776 z m 55.6866,-0.23894 c 1.6598,-1.3056 1.76505,-2.01586 1.75674,-11.85599 -0.004,-4.97766 -0.14065,-9.62628 -0.30324,-10.33028 -0.16339,-0.70747 -0.66892,-1.60205 -1.13021,-2 -0.82508,-0.71179 -0.94294,-0.71999 -10.33675,-0.7195 -13.86404,6.4e-4 -12.91217,-1.00309 -12.78856,13.48636 0.0808,9.46682 0.12642,10.17105 0.70037,10.80484 0.33769,0.37288 1.05769,0.80681 1.6,0.96428 0.54232,0.15746 5.17861,0.29929 10.30287,0.31516 9.09481,0.0282 9.33787,0.0123 10.19878,-0.66487 z M 190.252,239.97808 c 2.66204,-0.37026 9.6416,-3.00112 10.83004,-4.08225 0.37288,-0.33922 1.32596,-1.0111 2.11796,-1.49307 3.30516,-2.01138 7.03336,-6.45187 9.51104,-11.32818 1.50461,-2.96121 1.81241,-3.91096 2.52572,-7.79336 l 0.8123,-4.42119 -0.67897,-4.71001 c -0.6813,-4.72617 -1.38912,-7.57568 -1.97114,-7.93539 -0.17166,-0.10609 -0.71158,-1.01755 -1.19982,-2.02547 -2.04308,-4.21768 -6.09206,-8.57212 -10.59023,-11.38916 -0.8431,-0.528 -2.11037,-1.36479 -2.81616,-1.85954 -2.22962,-1.5629 -6.58317,-1.4879 -7.44814,0.12832 -0.21474,0.40123 -0.31549,5.48971 -0.28765,14.52823 0.0569,18.46595 0.88847,17.12928 -10.64667,17.11281 -8.66555,-0.0124 -8.64426,-0.003 -9.07483,-4.20515 -0.25283,-2.46775 0.28307,-3.80823 1.84549,-4.61618 0.82025,-0.42417 1.53601,-0.48121 3.80804,-0.30348 3.25053,0.25429 4.42864,-0.14588 5.08344,-1.72671 0.29235,-0.7058 0.40821,-3.70134 0.42319,-10.94109 l 0.0206,-9.9692 -0.73357,-0.594 c -1.31459,-1.0645 -5.20399,-0.53544 -7.31713,0.99531 -0.68578,0.49677 -1.73707,1.15606 -2.33621,1.46508 -1.93935,1.00029 -6.56901,5.18124 -7.67501,6.93116 -0.58901,0.93194 -1.4562,2.19844 -1.92708,2.81444 -0.47088,0.616 -1.11001,1.912 -1.4203,2.88 -0.31028,0.968 -0.98864,2.57343 -1.50746,3.56762 -1.27105,2.43566 -1.79842,8.00019 -1.25338,13.2249 0.31519,3.02136 0.54214,3.87153 1.62303,6.08 0.69113,1.41211 1.42331,3.10547 1.62708,3.76302 0.20377,0.65755 0.51798,1.2867 0.69825,1.39811 0.18027,0.11142 0.9503,1.15743 1.71118,2.32446 4.48875,6.88486 14.09538,12.18769 22.61121,12.48131 0.64726,0.0223 2.28309,-0.11328 3.63516,-0.30134 z M 307.68,191.68 c -37.07825,-0.13434 -44.28829,-0.23197 -44.96,-0.6088 -0.86174,-0.48343 -6.57787,-6.03026 -15.6961,-15.2312 C 235.16723,163.87577 211.26579,139.96059 210.21468,139.00961 209.6126,138.4649 204.944,133.73402 199.84,128.49654 189.98378,118.38256 187.90647,116.48 186.7198,116.48 c -0.54983,0 -3.53645,2.80498 -11.49934,10.8 -5.91613,5.94 -22.38097,22.47947 -36.58853,36.75437 -17.53377,17.61688 -26.29451,26.20032 -27.27193,26.72 l -1.44,0.76563 -45.145421,0.0843 -45.145423,0.0843 -1.414578,-0.95849 C 17.43656,190.20297 16.404,189.76903 15.92,189.76582 l -0.88,-0.006 v -2.4 -2.4 h 0.910404 c 1.07494,0 1.606951,-0.54183 2.727031,-2.77735 0.456717,-0.91155 0.981227,-1.75058 1.165578,-1.86451 0.295555,-0.18266 1.733843,-2.08446 8.468921,-11.19814 0.910458,-1.232 1.897889,-2.6 2.194292,-3.04 2.796801,-4.15175 3.564267,-5.19784 3.911038,-5.33091 0.221184,-0.0849 0.955782,-0.94245 1.632445,-1.90573 3.738521,-5.32207 4.36903,-6.17209 9.229977,-12.44336 0.818522,-1.056 1.98456,-2.64 2.591197,-3.52 0.60664,-0.88 1.711863,-2.41047 2.456048,-3.40105 0.744189,-0.99058 1.857069,-2.49208 2.473069,-3.33667 0.616,-0.84459 1.495955,-1.97812 1.955456,-2.51895 0.459501,-0.54083 1.25289,-1.65821 1.763085,-2.48307 1.055526,-1.70653 4.396502,-4.85694 5.765385,-5.43655 0.697402,-0.29528 9.791156,-0.40069 38.096184,-0.44155 l 37.1801,-0.0537 1.26201,-0.76425 c 0.69411,-0.42033 1.8467,-1.44733 2.56131,-2.28223 0.71461,-0.83489 2.63356,-2.77889 4.26433,-4.32 5.76266,-5.44582 36.02724,-35.771821 36.38713,-36.460973 0.26513,-0.507703 0.36501,-8.258378 0.36501,-28.324992 0,-26.337041 0.0278,-27.678055 0.59619,-28.741038 0.94722,-1.771515 2.22226,-2.330105 5.27229,-2.309771 2.87977,0.0192 4.12778,0.373307 5.33152,1.51275 0.44,0.416499 2.38034,1.523338 4.31187,2.459642 l 3.51186,1.702372 4.96814,-0.01418 c 4.71537,-0.01346 5.07395,-0.05973 7.04813,-0.909481 1.144,-0.492417 3.16,-1.223809 4.48,-1.625315 1.32,-0.401507 3.11926,-1.058575 3.99835,-1.460152 2.64689,-1.209124 4.62165,-1.583088 8.38073,-1.587077 4.38734,-0.0047 7.02766,0.526885 11.48623,2.31237 5.25811,2.105671 4.74392,-0.0445 4.94223,20.666677 0.13397,13.991056 0.0844,17.64143 -0.24737,18.217155 -0.62078,1.077213 -2.15294,0.945427 -4.08444,-0.351312 -1.86975,-1.255277 -3.00778,-1.646301 -6.13703,-2.108659 -2.89723,-0.42808 -6.78739,-0.430007 -10.49585,-0.0052 -2.21764,0.254035 -3.50801,0.620189 -5.62935,1.597373 -1.51372,0.697286 -2.94236,1.267792 -3.17477,1.267792 -0.2324,0 -1.94719,0.53207 -3.81064,1.18238 -3.14294,1.096829 -3.62771,1.178144 -6.69972,1.123818 -4.10478,-0.07259 -5.09956,-0.336509 -9.41879,-2.498829 -6.07975,-3.043683 -6.0161,-3.134966 -5.85615,8.397875 0.0962,6.934602 0.21653,8.842756 0.60462,9.586359 0.2665,0.510617 1.97346,2.399347 3.79325,4.197174 1.81978,1.797824 8.0607,7.957168 13.8687,13.687427 5.808,5.730255 13.872,13.712145 17.92,17.737525 4.048,4.02538 7.72,7.50903 8.16,7.74145 0.64897,0.34279 7.80794,0.42566 37.92,0.4389 33.97544,0.0149 37.22091,0.0616 38.31119,0.55112 2.14379,0.96245 5.48933,4.80176 10.93038,12.54356 0.50685,0.72118 1.37085,1.83728 1.92,2.48021 1.08429,1.26949 3.31341,4.24506 4.51811,6.03103 0.41552,0.616 1.29085,1.912 1.94518,2.88 0.65434,0.968 1.52996,2.12946 1.9458,2.58101 0.41584,0.45156 1.15056,1.4105 1.6327,2.13098 0.48214,0.72047 1.74064,2.42065 2.79664,3.77816 1.056,1.35751 2.352,3.07949 2.88,3.82661 0.528,0.74713 1.824,2.47805 2.88,3.84649 2.22848,2.88783 3.66157,4.85527 5.41392,7.43255 0.68963,1.01431 1.76963,2.44136 2.4,3.17122 0.63034,0.72986 1.86608,2.37514 2.74608,3.65618 0.88,1.28104 2.08262,2.87753 2.67251,3.54776 1.93955,2.2037 1.95354,5.17609 0.032,6.79295 -0.85513,0.71954 -1.84832,1.03122 -3.98454,1.25042 -0.352,0.0361 -20.512,-0.006 -44.8,-0.0943 z"
     id="path4495"
     inkscape:connector-curvature="0" />
</svg>
