<?xml version="1.0" encoding="UTF-8" standalone="no"?>
<!-- Created with Inkscape (http://www.inkscape.org/) -->

<svg
   xmlns:dc="http://purl.org/dc/elements/1.1/"
   xmlns:cc="http://creativecommons.org/ns#"
   xmlns:rdf="http://www.w3.org/1999/02/22-rdf-syntax-ns#"
   xmlns:svg="http://www.w3.org/2000/svg"
   xmlns="http://www.w3.org/2000/svg"
   xmlns:sodipodi="http://sodipodi.sourceforge.net/DTD/sodipodi-0.dtd"
   xmlns:inkscape="http://www.inkscape.org/namespaces/inkscape"
   version="1.1"
   id="svg4485"
   width="300"
   height="300"
   viewBox="0 0 384 384"
   sodipodi:docname="school.svg"
   inkscape:version="0.92.1 r15371">
  <metadata
     id="metadata4491">
    <rdf:RDF>
      <cc:Work
         rdf:about="">
        <dc:format>image/svg+xml</dc:format>
        <dc:type
           rdf:resource="http://purl.org/dc/dcmitype/StillImage" />
        <dc:title />
      </cc:Work>
    </rdf:RDF>
  </metadata>
  <defs
     id="defs4489" />
  <sodipodi:namedview
     pagecolor="#ffffff"
     bordercolor="#666666"
     borderopacity="1"
     objecttolerance="10"
     gridtolerance="10"
     guidetolerance="10"
     inkscape:pageopacity="0"
     inkscape:pageshadow="2"
     inkscape:window-width="1920"
     inkscape:window-height="1027"
     id="namedview4487"
     showgrid="false"
     inkscape:zoom="1.1171875"
     inkscape:cx="-158.98503"
     inkscape:cy="204.67561"
     inkscape:window-x="-8"
     inkscape:window-y="-8"
     inkscape:window-maximized="1"
     inkscape:current-layer="svg4485" />
  <path
     style="display:inline;fill:#6e6e6e;fill-opacity:1;stroke-width:0.19333641"
     d="m 91.202249,291.50012 c -0.228204,-0.0921 -0.699523,-0.52158 -1.047374,-0.95443 -0.471226,-0.58639 -0.772066,-0.78701 -1.180107,-0.78701 h -0.547652 v -4.15674 c 0,-3.96877 0.01677,-4.15672 0.370861,-4.15672 0.658696,0 0.984691,-0.22354 1.572968,-1.07857 0.669689,-0.97336 1.362169,-1.23873 3.236709,-1.24039 1.036252,0 1.288219,-0.0721 1.695414,-0.47936 l 0.478273,-0.47827 -0.01138,-37.02737 c -0.0082,-26.58878 0.0486,-37.13945 0.201372,-37.42492 0.311272,-0.58163 1.06339,-0.80966 1.90208,-0.5767 0.457855,0.12717 9.116997,0.19272 24.774257,0.18752 l 24.07038,-0.008 1.45002,-0.45613 c 0.79751,-0.25088 1.94948,-0.51395 2.55992,-0.58463 0.78703,-0.0911 1.37754,-0.31008 2.03003,-0.75273 0.50608,-0.34333 1.31898,-0.85441 1.80645,-1.13571 0.48747,-0.2813 2.85501,-2.49553 5.26121,-4.92049 10.68997,-10.77336 21.10459,-21.20946 23.14621,-23.19395 1.22106,-1.1869 3.56203,-3.56329 5.20216,-5.28087 3.17257,-3.3224 3.76726,-3.78533 4.5032,-3.50552 0.42786,0.16266 6.23625,5.94088 27.16125,27.02011 5.08247,5.11994 9.63237,9.55701 10.11088,9.86017 0.47851,0.30315 1.23443,0.82477 1.67983,1.15916 0.62358,0.46816 1.09043,0.6386 2.03003,0.74111 0.67112,0.0732 1.90947,0.34669 2.75189,0.60774 l 1.53167,0.47462 25.05038,-0.0228 c 24.75754,-0.0225 25.05335,-0.0183 25.30434,0.35973 0.20764,0.31273 0.25111,7.10034 0.23827,37.21236 -0.0115,27.12392 0.0422,36.95697 0.20407,37.31218 0.30433,0.6679 0.95022,0.91164 2.41581,0.91164 0.68959,0 1.53763,0.11859 1.88452,0.26354 0.71076,0.29696 2.21106,1.90322 2.37029,2.53765 0.0575,0.22918 0.0773,2.03389 0.0439,4.0105 l -0.0607,3.59379 -0.58485,0.72199 c -0.32166,0.39712 -0.88582,0.88343 -1.25368,1.08069 -0.64904,0.34811 -3.64224,0.35834 -101.30343,0.34645 -56.22299,-0.007 -100.817726,-0.0861 -101.049534,-0.17967 z M 202.63383,278.68333 c 0.3228,-0.32286 0.34843,-1.1287 0.39635,-12.46052 0.049,-11.59224 0.0349,-12.16584 -0.32848,-13.28503 -0.20884,-0.64334 -0.47054,-1.68263 -0.58154,-2.30954 -0.21915,-1.23762 -0.45127,-1.6742 -1.70794,-3.21242 -0.77435,-0.94784 -2.77959,-2.69296 -3.59746,-3.13079 -0.57177,-0.3061 -3.18291,-0.71993 -4.56598,-0.72365 -3.82449,-0.0103 -6.65749,1.63672 -9.12776,5.30665 -0.84511,1.25553 -0.93935,1.52104 -1.30392,3.67339 -0.3693,2.18035 -0.39013,3.02239 -0.34573,13.98536 l 0.0472,11.66534 0.54837,0.47162 0.54839,0.47162 9.83667,-0.0534 c 9.14325,-0.0497 9.86098,-0.0778 10.18178,-0.39862 z M 128.62,265.32098 c 0.22307,-0.20203 0.49259,-0.68055 0.59893,-1.06336 0.27819,-1.00144 0.25666,-12.24046 -0.0246,-12.8578 -0.45929,-1.00804 -0.96274,-1.08177 -7.38675,-1.08177 h -5.9051 l -0.54246,0.46636 -0.54245,0.46637 -0.0581,6.15854 c -0.0662,7.01195 -0.002,7.47294 1.1215,8.04133 0.61042,0.30886 1.24737,0.33724 6.5051,0.29001 5.41309,-0.0486 5.85732,-0.0785 6.23401,-0.41968 z m 32.87874,0.2114 c 1.32094,-0.4569 1.36452,-0.69028 1.40129,-7.50357 0.018,-3.33708 -0.0329,-6.26411 -0.11319,-6.50452 -0.0803,-0.24043 -0.42253,-0.58843 -0.76058,-0.77336 -0.53747,-0.294 -1.34064,-0.34363 -6.39703,-0.39531 -4.24803,-0.0434 -5.93448,0.003 -6.35555,0.1783 -1.03449,0.42851 -1.10564,0.90264 -1.10531,7.36637 3.9e-4,8.41483 -0.49012,7.88911 7.34648,7.87345 3.59169,-0.007 5.53322,-0.0855 5.98389,-0.24136 z m 73.8103,-0.0707 c 1.16536,-0.553 1.22223,-0.8972 1.23715,-7.48684 0.0149,-6.57182 -0.0352,-6.85907 -1.2867,-7.38198 -0.99289,-0.41486 -11.18242,-0.39746 -12.22796,0.0209 -1.37197,0.54895 -1.39562,0.67171 -1.39562,7.24508 0,6.69161 0.045,6.92829 1.43536,7.55979 0.70568,0.32051 1.35059,0.35835 6.17221,0.36215 4.63794,0.003 5.47863,-0.0406 6.06556,-0.31907 z m 33.79895,-0.30534 c 0.76469,-0.88948 0.85982,-1.70077 0.86095,-7.34255 0.002,-4.49811 -0.0495,-5.4875 -0.31289,-6.14586 -0.52627,-1.31527 -0.69807,-1.34985 -6.70904,-1.34985 -2.9162,0 -5.56692,0.0529 -5.89048,0.11766 -0.32356,0.0647 -0.87818,0.35968 -1.23252,0.65549 l -0.64423,0.53782 v 6.29046 c 0,6.04521 0.0155,6.31119 0.39734,6.82264 0.71386,0.95614 1.23335,1.0252 7.40144,0.98404 l 5.67207,-0.0379 z m -140.32605,-27.84457 0.53583,-0.53606 v -6.43255 c 0,-5.87174 -0.0303,-6.47891 -0.34845,-6.96435 -0.19165,-0.29249 -0.55497,-0.61031 -0.80738,-0.70627 -0.2524,-0.096 -3.12767,-0.19009 -6.38946,-0.20917 l -5.93056,-0.0346 -0.51219,0.51192 -0.51219,0.51192 -0.0598,6.13431 c -0.0329,3.37388 -0.005,6.4268 0.0611,6.78426 0.0665,0.35747 0.33215,0.8612 0.59035,1.11939 l 0.46945,0.46946 6.18369,-0.0561 6.18371,-0.0561 z m 32.70825,0.38016 c 0.3622,-0.12692 0.8296,-0.46152 1.03866,-0.74355 0.35974,-0.48534 0.3794,-0.83941 0.36696,-6.61104 -0.0146,-6.79732 -0.0605,-7.0681 -1.28247,-7.5787 -0.85233,-0.35612 -11.83388,-0.43274 -12.47977,-0.0871 -0.88195,0.472 -0.96551,1.12142 -0.96551,7.50443 0,6.40776 0.0751,7.00613 0.93886,7.47534 0.67546,0.36695 11.35197,0.40195 12.38327,0.0406 z m 73.7693,-0.0222 c 1.26081,-0.5268 1.31225,-0.82189 1.28954,-7.39641 -0.022,-6.36466 -0.0951,-6.8719 -1.08343,-7.51949 -0.45745,-0.29973 -1.09613,-0.32977 -6.25125,-0.294 -6.40801,0.0445 -6.58415,0.078 -7.23979,1.37769 -0.29956,0.5938 -0.33808,1.33491 -0.33835,6.50942 -1.8e-4,4.20869 0.0661,5.98504 0.23743,6.3611 0.13694,0.30052 0.56735,0.67151 1.01502,0.87487 0.69319,0.31489 1.36891,0.35355 6.24525,0.35734 4.2959,0.003 5.60892,-0.0546 6.12558,-0.27052 z m 33.64454,-0.14436 c 1.0028,-0.78882 1.0664,-1.21794 1.06137,-7.16312 -0.002,-3.00739 -0.085,-5.81597 -0.18321,-6.24131 -0.0987,-0.42744 -0.40414,-0.96792 -0.68284,-1.20835 -0.49849,-0.43005 -0.5697,-0.43501 -6.24523,-0.43471 -8.37632,3.9e-4 -7.80122,-0.60604 -7.72654,8.14814 0.0488,5.71963 0.0764,6.14511 0.42315,6.52803 0.20402,0.22529 0.63903,0.48746 0.96668,0.5826 0.32766,0.0951 3.12879,0.18082 6.22475,0.19041 5.49487,0.0171 5.64172,0.007 6.16187,-0.40169 z m -74.61797,-13.5143 c 1.60834,-0.2237 5.82523,-1.8132 6.54325,-2.46639 0.22529,-0.20495 0.80112,-0.61089 1.27963,-0.90208 1.99689,-1.21523 4.24939,-3.89807 5.74634,-6.84422 0.90904,-1.78909 1.09502,-2.36291 1.52598,-4.70857 l 0.49078,-2.67117 -0.41022,-2.84567 c -0.41163,-2.85545 -0.83927,-4.57705 -1.19092,-4.79438 -0.10371,-0.0641 -0.42992,-0.61478 -0.72491,-1.22374 -1.23438,-2.54822 -3.68067,-5.17907 -6.39836,-6.88106 -0.50938,-0.31901 -1.27504,-0.82458 -1.70146,-1.1235 -1.34708,-0.94425 -3.97739,-0.89895 -4.49998,0.0775 -0.12975,0.24242 -0.19063,3.31676 -0.17379,8.77762 0.0344,11.15669 0.53678,10.3491 -6.43248,10.33915 -5.23552,-0.007 -5.22266,-0.002 -5.48279,-2.54065 -0.15275,-1.49096 0.17103,-2.30084 1.115,-2.78899 0.49557,-0.25627 0.92802,-0.29073 2.30073,-0.18335 1.96389,0.15363 2.67567,-0.0881 3.07129,-1.04324 0.17664,-0.42642 0.24664,-2.23626 0.25568,-6.61035 l 0.0125,-6.02315 -0.4432,-0.35888 c -0.79425,-0.64314 -3.14413,-0.3235 -4.42085,0.60134 -0.41432,0.30014 -1.04949,0.69847 -1.41148,0.88517 -1.1717,0.60435 -3.96884,3.13038 -4.63705,4.18764 -0.35588,0.56306 -0.87981,1.32825 -1.16431,1.70042 -0.28449,0.37217 -0.67063,1.15518 -0.85811,1.74002 -0.18746,0.58485 -0.5973,1.55481 -0.91077,2.15548 -0.76794,1.47157 -1.08656,4.83353 -0.75726,7.99016 0.19043,1.82545 0.32755,2.33909 0.9806,3.6734 0.41756,0.85316 0.85993,1.87625 0.98304,2.27353 0.12311,0.39727 0.31296,0.77739 0.42187,0.84471 0.10891,0.0673 0.57415,0.69929 1.03385,1.40438 2.71199,4.15967 8.5161,7.36351 13.66116,7.54092 0.39106,0.0135 1.37938,-0.0685 2.19628,-0.18208 z m 70.94721,-29.18055 c -22.40179,-0.0811 -26.75792,-0.14015 -27.16376,-0.36782 -0.52064,-0.29208 -3.9742,-3.64334 -9.48321,-9.20233 -7.16352,-7.2285 -21.6042,-21.67749 -22.23926,-22.25205 -0.36377,-0.3291 -3.18443,-3.18739 -6.26813,-6.35174 -5.9549,-6.11064 -7.20997,-7.26012 -7.92692,-7.26012 -0.3322,0 -2.13664,1.6947 -6.94763,6.52511 -3.57438,3.5888 -13.52205,13.58156 -22.10592,22.20611 -10.59349,10.64371 -15.88653,15.82962 -16.47706,16.1436 l -0.87001,0.46258 -27.2758,0.051 -27.275795,0.051 -0.854654,-0.57909 c -0.47006,-0.31849 -1.093909,-0.58066 -1.38633,-0.58261 l -0.531675,-0.003 v -1.45002 -1.45003 h 0.550045 c 0.649453,0 0.970881,-0.32735 1.647607,-1.67801 0.275938,-0.55073 0.592834,-1.05765 0.704215,-1.12649 0.178567,-0.11036 1.047547,-1.25938 5.116722,-6.76565 0.550076,-0.74435 1.146658,-1.57086 1.325739,-1.8367 1.68976,-2.50838 2.153445,-3.14041 2.362956,-3.2208 0.13363,-0.0512 0.57746,-0.56941 0.98628,-1.15141 2.25873,-3.21547 2.63967,-3.72902 5.57654,-7.51798 0.49453,-0.63801 1.19902,-1.59502 1.56554,-2.1267 0.36652,-0.53167 1.03427,-1.45634 1.48388,-2.05483 0.44963,-0.59849 1.122,-1.50565 1.49417,-2.01594 0.37218,-0.51028 0.90382,-1.19513 1.18144,-1.52189 0.27762,-0.32675 0.75697,-1.00185 1.06522,-1.50021 0.63772,-1.03105 2.65626,-2.93445 3.48331,-3.28464 0.42135,-0.1784 5.91558,-0.24209 23.01681,-0.26677 l 22.46333,-0.0324 0.76249,-0.46174 c 0.41936,-0.25395 1.11573,-0.87443 1.54748,-1.37887 0.43175,-0.50441 1.59113,-1.67893 2.5764,-2.61004 3.48166,-3.29023 21.7668,-21.61248 21.98424,-22.02886 0.1602,-0.30674 0.22053,-4.98951 0.22053,-17.11328 0,-15.912217 0.0168,-16.722427 0.36021,-17.364655 0.5723,-1.070308 1.34264,-1.407795 3.1854,-1.39551 1.73988,0.01159 2.4939,0.225543 3.22117,0.913968 0.26584,0.251639 1.43815,0.920365 2.60514,1.486057 l 2.12178,1.028533 3.00162,-0.0086 c 2.84892,-0.0081 3.06557,-0.03608 4.25832,-0.549487 0.69117,-0.297506 1.90919,-0.739396 2.70671,-0.981977 0.79751,-0.242581 1.88458,-0.639566 2.41571,-0.882189 1.59918,-0.730524 2.79229,-0.956464 5.06344,-0.958874 2.65072,-0.0028 4.24594,0.318331 6.93971,1.397079 3.17682,1.272196 2.86616,-0.02689 2.98597,12.486315 0.0809,8.45307 0.051,10.65854 -0.14945,11.00637 -0.37506,0.65083 -1.30076,0.57121 -2.46772,-0.21225 -1.12966,-0.75841 -1.81723,-0.99465 -3.70785,-1.274 -1.75044,-0.25864 -4.10078,-0.2598 -6.34134,-0.003 -1.33985,0.15348 -2.11946,0.3747 -3.40113,0.9651 -0.91455,0.42128 -1.7777,0.76597 -1.91811,0.76597 -0.14042,0 -1.17645,0.32146 -2.30231,0.71436 -1.89889,0.66268 -2.19177,0.7118 -4.0478,0.67899 -2.48002,-0.0438 -3.08104,-0.20332 -5.69062,-1.50974 -3.67324,-1.83892 -3.63479,-1.89407 -3.53814,5.0738 0.0581,4.18972 0.13082,5.34258 0.36529,5.79184 0.16101,0.30851 1.19232,1.44964 2.2918,2.53584 1.09946,1.08621 4.87008,4.80754 8.37914,8.26963 3.50905,3.46208 8.38113,8.28454 10.82684,10.71658 2.4457,2.43205 4.66424,4.53678 4.93007,4.67721 0.3921,0.2071 4.71738,0.25717 22.91037,0.26516 20.52716,0.009 22.48799,0.0372 23.14671,0.33298 1.29523,0.58149 3.31652,2.9011 6.60388,7.57853 0.30622,0.43571 0.82824,1.11003 1.16002,1.49848 0.6551,0.76699 2.00188,2.56476 2.72974,3.6438 0.25104,0.37217 0.7799,1.15519 1.17523,1.74003 0.39533,0.58484 0.92436,1.28657 1.1756,1.55938 0.25124,0.27283 0.69515,0.85219 0.98644,1.28749 0.29129,0.43529 1.05166,1.4625 1.68967,2.28268 0.638,0.82018 1.42101,1.86056 1.74002,2.31194 0.31901,0.4514 1.10201,1.49719 1.74003,2.32397 1.3464,1.74475 2.21223,2.93343 3.27096,4.49056 0.41666,0.61282 1.06917,1.47501 1.45002,1.91598 0.38084,0.44096 1.12745,1.435 1.65913,2.20898 0.53167,0.77398 1.25826,1.73854 1.61465,2.14347 1.17184,1.33142 1.18029,3.12728 0.0194,4.10414 -0.51665,0.43473 -1.11672,0.62304 -2.40737,0.75548 -0.21267,0.0218 -12.39286,-0.003 -27.0671,-0.057 z"
     id="path4495"
     inkscape:connector-curvature="0" />
</svg>
