<?xml version="1.0" encoding="UTF-8" standalone="no"?>
<svg
   xmlns:dc="http://purl.org/dc/elements/1.1/"
   xmlns:cc="http://creativecommons.org/ns#"
   xmlns:rdf="http://www.w3.org/1999/02/22-rdf-syntax-ns#"
   xmlns:svg="http://www.w3.org/2000/svg"
   xmlns="http://www.w3.org/2000/svg"
   id="svg8"
   version="1.1"
   viewBox="0 0 210 297"
   height="300"
   width="300">
  <defs
     id="defs2" />
  <metadata
     id="metadata5">
    <rdf:RDF>
      <cc:Work
         rdf:about="">
        <dc:format>image/svg+xml</dc:format>
        <dc:type
           rdf:resource="http://purl.org/dc/dcmitype/StillImage" />
        <dc:title></dc:title>
      </cc:Work>
    </rdf:RDF>
  </metadata>
  <g
     id="layer1">
    <path
       id="path4496"
       d="m 59.565106,285.68676 c -1.53476,-0.1847 -1.977046,-0.3362 -2.074981,-0.7107 -0.06846,-0.26177 -0.369285,-0.53998 -0.66851,-0.61822 -0.506137,-0.13237 -0.531908,-0.27287 -0.36985,-2.01652 0.0958,-1.03085 0.27279,-2.07918 0.3933,-2.3296 0.120507,-0.25043 0.38761,-0.81251 0.593556,-1.24908 0.366368,-0.77662 1.671185,-1.56672 4.756748,-2.88035 3.089246,-1.31519 3.957518,-1.8751 6.091766,-3.92826 1.250477,-1.20297 2.348066,-2.39558 2.439091,-2.65024 0.09102,-0.25466 0.345085,-0.46302 0.564578,-0.46302 0.404876,0 1.275562,-1.11354 1.369121,-1.751 0.02814,-0.19174 0.345649,-0.62035 0.705572,-0.95246 0.359924,-0.33211 0.860335,-1.13961 1.112028,-1.79446 0.25169,-0.65484 0.517345,-1.3408 0.590341,-1.52435 0.08957,-0.22523 -0.01601,-0.27666 -0.324715,-0.1582 -0.419531,0.16099 -0.442505,-0.009 -0.277259,-2.04752 0.385169,-4.75229 0.662821,-6.30715 1.427379,-7.99334 0.423564,-0.93415 0.894323,-1.77522 1.046133,-1.86904 0.342025,-0.21138 -0.239625,-1.45852 -1.002022,-2.14848 -0.708437,-0.64112 -0.670126,-1.30924 0.110273,-1.92311 l 0.641409,-0.50453 -0.677709,-0.77144 c -0.893342,-1.0169 -2.24385,-3.98178 -2.141326,-4.70103 0.04937,-0.34635 0.302993,-0.59997 0.649353,-0.64934 0.32004,-0.0456 0.636344,-0.33461 0.723993,-0.66146 0.08561,-0.31925 0.15621,-2.72357 0.156895,-5.34295 0.0013,-4.56363 0.416581,-11.8675 1.187432,-20.87907 0.200472,-2.34357 0.264025,-4.46315 0.143343,-4.78057 -0.119242,-0.31363 -0.282117,-4.13399 -0.361937,-8.48968 -0.07982,-4.35568 -0.275846,-9.40918 -0.435612,-11.23 -0.159766,-1.82082 -0.23304,-5.27363 -0.162833,-7.67292 0.108977,-3.72409 0.221737,-4.63332 0.770702,-6.21442 0.353677,-1.01865 0.723493,-2.74505 0.821812,-3.83646 0.09832,-1.09141 0.345117,-2.87734 0.548444,-3.96875 0.203327,-1.09141 0.447416,-2.69875 0.542417,-3.57187 0.184843,-1.69882 1.525685,-8.61526 1.985751,-10.24305 0.152746,-0.54044 0.392374,-1.05348 0.532508,-1.14009 0.140132,-0.0866 0.254786,-0.60508 0.254786,-1.15217 0,-1.14228 0.629555,-3.44251 1.312328,-4.7949 0.686496,-1.35976 1.069208,-2.69539 1.066776,-3.72295 l -0.0021,-0.90726 -2.220984,2.24896 c -1.221539,1.23693 -3.054644,2.96333 -4.073562,3.83646 -2.042615,1.75034 -2.004603,1.65268 -2.642939,6.7899 l -0.219043,1.76283 0.731943,0.14639 c 0.838851,0.16777 1.353759,0.85987 2.213502,2.97522 l 0.607639,1.49506 -0.604544,1.60812 c -0.561123,1.49262 -0.574482,1.654 -0.186023,2.24686 0.393755,0.60095 0.382886,0.6676 -0.183642,1.12635 -0.391845,0.31729 -0.548389,0.65702 -0.448207,0.97267 0.147066,0.46336 -0.667808,1.64639 -1.134036,1.64639 -0.113337,0 -0.607158,0.98226 -1.097375,2.18281 -1.152575,2.82267 -1.475928,3.30709 -2.333416,3.49571 -0.571844,0.12579 -0.970328,0.65102 -2.070245,2.72873 -0.749152,1.41512 -2.097432,4.35889 -2.996176,6.5417 -2.135355,5.18621 -2.875201,6.74688 -3.198408,6.74688 -0.658762,0 -0.460677,-0.96706 0.768257,-3.7506 2.758221,-6.24745 4.539438,-11.20269 4.539438,-12.62852 0,-0.91975 -0.489593,-1.4456 -0.972664,-1.04469 -0.260382,0.2161 -0.350253,0.20151 -0.350253,-0.0569 0,-0.21267 -0.14257,-0.15258 -0.367352,0.15483 -0.349168,0.47752 -0.39496,0.4571 -0.925053,-0.41245 -0.306736,-0.50316 -0.558146,-1.22729 -0.558688,-1.60917 -5.3e-4,-0.38189 -0.165069,-1.15939 -0.36561,-1.72778 -0.200538,-0.56839 -0.429426,-1.76021 -0.508635,-2.64847 -0.07921,-0.88827 -0.40886,-2.23068 -0.732559,-2.98314 -0.552659,-1.28469 -0.566293,-1.45997 -0.2236,-2.8749 0.246793,-1.01896 0.366445,-3.22 0.369576,-6.79846 l 0.0046,-5.29166 1.282414,-2.85339 c 1.106355,-2.46165 1.300395,-3.1518 1.41338,-5.02708 0.07871,-1.30645 0.438476,-3.17653 0.901719,-4.68724 0.423915,-1.38245 1.314352,-4.47807 1.978747,-6.87917 1.271849,-4.5964 1.626759,-5.41344 2.467449,-5.68026 0.406542,-0.12903 0.640667,-0.71349 1.094419,-2.73205 0.317482,-1.41234 0.870585,-3.11476 1.229117,-3.78316 0.649507,-1.21084 0.650248,-1.22087 0.20365,-2.75712 -0.383027,-1.31756 -0.406202,-1.87206 -0.159303,-3.81182 0.158911,-1.24848 0.345728,-3.75824 0.41515,-5.57725 0.06942,-1.81901 0.307377,-4.14073 0.528788,-5.159378 0.221411,-1.018646 0.768794,-3.816615 1.216406,-6.217708 0.447611,-2.401094 1.218202,-5.675312 1.712423,-7.276041 0.494223,-1.60073 1.007274,-3.327136 1.140113,-3.836459 0.336016,-1.288322 2.571425,-6.991093 3.387109,-8.640878 0.704752,-1.425419 1.610492,-2.364843 4.119446,-4.272653 1.752036,-1.332248 2.940134,-2.723808 4.074236,-4.771951 0.868371,-1.568243 1.763969,-2.061149 3.327982,-1.831601 0.684578,0.100475 0.763601,-0.0056 1.543767,-2.072707 0.649084,-1.719767 1.098431,-2.446512 2.133561,-3.450663 1.394121,-1.352405 1.618759,-2.028468 0.816623,-2.457755 -0.272074,-0.145608 -0.705279,-0.715346 -0.962676,-1.266078 -0.2574,-0.550736 -0.976246,-1.549972 -1.59744,-2.220526 -2.286093,-2.467756 -2.849777,-4.569053 -2.937841,-10.951644 -0.08728,-6.32544 -0.122354,-6.629491 -0.75424,-6.537783 -0.291042,0.04224 -1.223838,0.101771 -2.072883,0.132291 -1.318702,0.0474 -1.614022,-0.03115 -2.026039,-0.538898 -1.125551,-1.387072 0.828037,-3.869693 3.673295,-4.668032 l 1.538245,-0.431609 0.163878,-2.125145 c 0.193632,-2.510967 0.910341,-4.346406 1.805876,-4.624717 0.341987,-0.106281 0.978982,-0.445495 1.415545,-0.753809 1.583102,-1.118036 3.217676,-1.486531 6.604426,-1.488894 5.20298,-0.0036 8.07352,0.838163 11.29136,3.311218 1.2169,0.935243 2.5145,1.930493 2.88354,2.211667 0.36904,0.281173 1.01881,1.148346 1.44392,1.927051 0.94292,1.727189 0.97584,3.14189 0.14251,6.124202 -0.47327,1.693733 -0.53025,2.285119 -0.31866,3.307292 0.32131,1.552205 -0.002,4.009164 -0.67963,5.156813 -0.80391,1.362516 -1.39142,3.354829 -1.39142,4.718412 0,0.693094 -0.11906,1.333754 -0.26458,1.423691 -0.37415,0.231232 -0.32959,4.198053 0.0567,5.045799 0.30198,0.662779 0.40118,0.695852 1.65364,0.551318 0.73282,-0.08457 1.59817,-0.230989 1.92301,-0.325382 0.47514,-0.138065 0.68206,-0.0078 1.05833,0.666568 0.80928,1.450279 2.91821,4.14294 3.82753,4.886946 1.15116,0.941874 3.65165,2.584601 3.65165,2.398996 0,-0.08029 -0.19697,-0.446596 -0.4377,-0.814007 -0.40552,-0.618889 -0.40582,-0.699902 -0.004,-1.101537 0.40163,-0.401635 0.50542,-0.349515 1.41121,0.708694 1.57696,1.842326 3.41933,3.141136 5.26386,3.710853 4.28109,1.322297 9.18932,5.959043 9.89165,9.344527 0.1279,0.616535 0.53791,1.835348 0.91112,2.708473 0.37321,0.873125 0.68139,1.725645 0.68484,1.894486 0.0149,0.727268 1.46929,2.418712 2.9211,3.397181 2.00666,1.352404 2.16336,2.118598 0.39248,1.918994 -1.20043,-0.135306 -1.46925,0.03393 -0.85874,0.540617 0.48297,0.400823 2.37446,4.462508 3.78316,8.123722 0.67189,1.74625 1.39117,3.552446 1.59838,4.013771 0.20722,0.461327 0.45199,1.235234 0.54393,1.719792 0.0919,0.48456 0.29125,1.119145 0.44289,1.410186 0.15165,0.291042 0.48149,1.243542 0.73298,2.116665 0.25149,0.87313 0.69976,2.24235 0.99615,3.04271 0.29639,0.80036 0.91106,2.70536 1.36594,4.23333 0.45488,1.52797 0.99686,3.16912 1.20441,3.647 0.26791,0.61689 0.37481,1.92135 0.36858,4.49792 -0.009,3.51631 -0.0378,3.70301 -0.94185,6.01029 -0.51318,1.30969 -1.08738,2.91703 -1.27599,3.57188 -0.18861,0.65484 -1.02688,2.97656 -1.86282,5.15937 -0.83594,2.18281 -1.68786,4.50826 -1.89317,5.16765 -0.27376,0.87928 -0.95443,1.80232 -2.55315,3.46225 -1.19893,1.24484 -2.65612,2.61033 -3.2382,3.03443 -0.58209,0.4241 -1.35599,1.04812 -1.7198,1.38672 -0.3638,0.3386 -1.46513,1.14641 -2.44739,1.79513 -0.98227,0.64872 -1.78594,1.26873 -1.78594,1.37778 0,0.24148 -3.8036,4.03308 -4.85879,4.84346 l -0.75775,0.58196 -0.86752,-1.03332 -0.86752,-1.03331 -0.55011,0.65967 c -0.30256,0.36281 -0.62101,0.86802 -0.70766,1.12268 -0.0867,0.25466 -0.27271,0.46302 -0.41346,0.46302 -0.33923,0 -0.0477,8.89109 0.31368,9.56632 0.14844,0.27737 0.25744,1.24474 0.24223,2.14972 -0.0152,0.90498 0.0816,2.07599 0.21504,2.60225 0.1514,0.59693 0.14695,1.12789 -0.0118,1.41163 -0.2488,0.44457 -0.48021,1.46862 -0.5111,2.26175 -0.008,0.21828 0.12824,1.7018 0.30386,3.29671 0.24505,2.22529 0.24722,3.14046 0.009,3.93435 -0.48271,1.61112 -0.52613,7.61071 -0.0767,10.59235 0.54316,3.60314 0.33262,9.51865 -0.41053,11.53465 -0.46077,1.24998 -0.48519,1.53596 -0.18139,2.12346 0.52958,1.02408 1.65855,7.37924 1.9748,11.11639 0.15393,1.81901 0.3478,3.90261 0.43082,4.63021 0.083,0.72761 0.25097,3.40651 0.37321,5.95313 0.25128,5.23481 0.80857,9.77663 1.48114,12.07117 0.44,1.50108 0.60239,4.55626 0.3147,5.92049 -0.0767,0.36381 -0.15469,0.74632 -0.17326,0.85004 -0.0186,0.10372 -0.71838,0.65804 -1.55512,1.23183 -2.37798,1.63066 -2.36976,1.61418 -2.44465,4.90515 -0.01,0.42313 -0.1806,1.1375 -0.37994,1.5875 -0.35677,0.80539 -0.67934,2.64209 -1.22843,6.99468 -0.15319,1.21427 -0.39779,2.52146 -0.54356,2.90488 -0.14578,0.38342 -0.18863,1.25277 -0.0952,1.9319 0.12138,0.88253 0.0506,1.4653 -0.24809,2.04292 -0.54618,1.05621 -0.5279,1.90179 0.13305,6.15366 0.36063,2.31992 0.50329,4.18413 0.41295,5.3964 -0.13039,1.74962 -0.19381,1.89944 -1.14628,2.70804 -0.63425,0.53845 -1.29733,0.85742 -1.78753,0.8599 -0.78639,0.004 -2.26344,1.12882 -2.26344,1.72373 0,0.40592 -1.27933,1.57263 -2.24895,2.05097 -0.96496,0.47604 -4.15262,1.44245 -5.42396,1.64444 -5.87263,0.93289 -10.9219,0.86185 -12.48953,-0.17574 -0.67224,-0.44495 -1.13296,-2.0768 -0.71363,-2.52767 0.1014,-0.10904 0.24651,-0.6745 0.32246,-1.25659 0.32007,-2.45315 0.70095,-3.15735 3.13835,-5.8024 0.53531,-0.5809 0.92587,-1.1329 0.86792,-1.22666 -0.0579,-0.0938 0.33752,-0.68587 0.87881,-1.3158 2.52361,-2.93684 4.78825,-7.3159 5.58091,-10.7916 0.83896,-3.67874 0.99511,-5.33749 0.50244,-5.33749 -0.21869,0 -0.71133,-0.24677 -1.09476,-0.54837 -1.3733,-1.08024 -0.73657,-2.81517 1.58795,-4.32677 1.02168,-0.66437 1.41908,-1.40955 1.41908,-2.66095 0,-0.17941 -0.68753,-0.75057 -1.52784,-1.26924 -2.32378,-1.43431 -2.43115,-1.61842 -2.83578,-4.86196 -1.2206,-9.78445 -1.66883,-15.15336 -1.8631,-22.31605 -0.13853,-5.10741 -0.31054,-7.22958 -0.81101,-10.00563 -0.34936,-1.93784 -0.63519,-4.16676 -0.63519,-4.95316 0,-0.95286 -0.35423,-2.51361 -1.06189,-4.67874 -1.32702,-4.06013 -3.22558,-8.73627 -3.44048,-8.47386 -0.0891,0.10882 -0.43333,1.20989 -0.76493,2.44681 -0.5488,2.04716 -2.41014,7.97908 -3.38642,10.79222 -0.21662,0.62421 -0.67674,1.47111 -1.02249,1.882 -0.69567,0.82677 -0.69348,0.80053 -0.48778,5.84661 0.0801,1.96454 0.018,4.70297 -0.13796,6.08542 -0.15597,1.38245 -0.4642,4.23995 -0.68496,6.35 -0.22075,2.11005 -0.57139,4.72943 -0.779185,5.82083 -0.367506,1.93031 -1.252635,7.91235 -1.605103,10.84792 -0.353012,2.9401 -1.705435,4.71637 -3.734548,4.90496 -0.516613,0.048 -0.992532,0.14053 -1.057595,0.2056 -0.06507,0.0651 -0.172469,2.66251 -0.238676,5.7721 -0.0662,3.10959 -0.183806,6.5941 -0.261337,7.74335 -0.12523,1.85632 -0.08029,2.15414 0.402556,2.66812 0.491929,0.52363 0.559033,1.02849 0.70694,5.31877 0.08988,2.60712 0.276103,4.88334 0.413827,5.05826 0.137726,0.17491 0.176197,0.55185 0.08549,0.83763 -0.0907,0.28577 -0.04101,0.59617 0.110432,0.68976 0.429072,0.26519 0.352893,4.50771 -0.0875,4.87321 -0.851739,0.70687 -5.420124,1.64537 -8.500694,1.74631 -2.486076,0.0815 -6.338062,0.87535 -8.556964,1.76358 -4.816731,1.92818 -12.599434,2.90182 -17.999805,2.25184 z M 142.08125,115.54081 c 0.71238,-0.79774 0.83506,-1.06772 0.53171,-1.1701 -0.21688,-0.0732 -0.70919,-0.44796 -1.09402,-0.83279 l -0.6997,-0.69969 -0.17152,1.47054 c -0.0943,0.8088 -0.23244,1.9468 -0.30689,2.52888 l -0.13536,1.05833 0.47487,-0.65908 c 0.26118,-0.36249 0.89159,-1.12573 1.40091,-1.69609 z m -3.23194,-49.86123 c -0.98694,-0.857311 -1.8647,-1.361718 -2.36963,-1.361718 -0.43991,0 2.44316,2.096693 2.8988,2.108131 0.18696,0.0047 -0.0512,-0.331192 -0.52917,-0.746413 z"
       style="fill:#2a5885;stroke-width:0.26458332;fill-opacity:1" />
  </g>
</svg>
