<?xml version="1.0" encoding="UTF-8" standalone="no"?>
<svg
   xmlns:dc="http://purl.org/dc/elements/1.1/"
   xmlns:cc="http://creativecommons.org/ns#"
   xmlns:rdf="http://www.w3.org/1999/02/22-rdf-syntax-ns#"
   xmlns:svg="http://www.w3.org/2000/svg"
   xmlns="http://www.w3.org/2000/svg"
   id="svg8"
   version="1.1"
   viewBox="0 0 210 297"
   height="300"
   width="300">
  <defs
     id="defs2" />
  <metadata
     id="metadata5">
    <rdf:RDF>
      <cc:Work
         rdf:about="">
        <dc:format>image/svg+xml</dc:format>
        <dc:type
           rdf:resource="http://purl.org/dc/dcmitype/StillImage" />
        <dc:title></dc:title>
      </cc:Work>
    </rdf:RDF>
  </metadata>
  <g
     style="display:inline"
     id="layer2">
    <path
       id="path4496"
       d="m 89.294007,222.25927 c -1.606436,-0.50756 -2.954568,-1.49273 -3.374684,-2.46612 -0.337639,-0.78228 -0.365913,-4.49842 -0.06258,-8.22451 0.187064,-2.29782 0.192983,-2.9111 0.03061,-3.17111 -0.319077,-0.51093 -0.785569,-1.46862 -0.88957,-1.82627 -0.0689,-0.23694 0.132768,-0.62461 0.728471,-1.4004 l 0.823743,-1.07277 -0.487204,-1.07912 c -0.81297,-1.80066 -0.922952,-2.49389 -0.696008,-4.38707 0.279674,-2.33305 0.802584,-5.40531 0.974761,-5.72703 0.338546,-0.63258 0.521432,-4.13601 0.551315,-10.56118 0.03185,-6.84873 0.103537,-8.12727 0.766843,-13.67732 0.322973,-2.70239 0.36361,-3.78438 0.366503,-9.75808 0.0029,-5.95033 0.16941,-9.6882 0.481067,-10.79789 0.03706,-0.13198 0.143782,-0.92382 0.237147,-1.75966 0.09337,-0.83583 0.463095,-2.73301 0.821623,-4.21595 l 0.651865,-2.69625 -0.426553,-2.1028 c -0.350427,-1.72753 -0.512186,-2.21018 -0.906356,-2.70433 -0.629878,-0.78964 -0.853603,-1.37579 -1.105113,-2.89531 l -0.2081,-1.25726 -1.499781,-1.70217 c -0.824881,-0.93618 -1.682428,-1.76389 -1.905659,-1.83935 -0.223233,-0.0755 -0.994516,-0.46539 -1.713963,-0.86652 -0.719444,-0.40114 -1.524039,-0.83842 -1.787988,-0.97176 -0.728532,-0.36803 -2.115458,-1.75412 -2.575169,-2.57362 -0.378165,-0.67412 -0.404048,-0.84596 -0.338855,-2.24957 0.04094,-0.8816 0.314984,-2.66158 0.652646,-4.23917 1.231648,-5.75441 1.433932,-6.28492 3.4246,-8.98146 1.122379,-1.52036 1.985176,-2.77957 2.99834,-4.37593 0.418801,-0.65987 1.179303,-1.60651 1.690002,-2.10364 1.031599,-1.004207 1.633277,-1.262562 3.826541,-1.643085 2.289074,-0.397147 6.12181,-1.403307 6.694988,-1.757549 0.06934,-0.04285 0.332405,-0.590463 0.584594,-1.216912 0.252187,-0.626449 0.646233,-1.296944 0.875656,-1.48999 0.618369,-0.520325 0.636686,-0.593708 0.401129,-1.607041 -0.248924,-1.070841 -0.182193,-0.971964 -0.788153,-1.167816 -0.611768,-0.197727 -1.000761,-0.736201 -1.312419,-1.816751 -0.679354,-2.355387 -0.665753,-3.539902 0.04181,-3.641934 0.310241,-0.04474 0.339182,-0.183256 0.434492,-2.079594 0.100452,-1.998605 0.619278,-4.794286 1.105769,-5.958415 0.286174,-0.684794 1.753693,-2.309725 2.513673,-2.783294 1.50271,-0.936389 3.79561,-1.155116 5.81246,-0.55447 1.04368,0.31082 1.23546,0.444875 2.76383,1.931859 1.77193,1.723959 2.3559,2.638061 2.62869,4.114735 0.18243,0.987555 0.18712,2.701621 0.0112,4.097358 -0.1006,0.798198 -0.0683,1.061479 0.19166,1.5636 0.30497,0.588999 0.30582,0.641891 0.0349,2.159577 -0.32228,1.805591 -0.51317,2.242123 -1.23264,2.818897 -0.2891,0.231762 -0.60975,0.489633 -0.71254,0.573045 -0.10279,0.08341 -0.29999,0.540665 -0.4382,1.016114 -0.19754,0.679497 -0.22047,1.109992 -0.10721,2.012051 0.19951,1.588877 0.3107,1.71489 2.89188,3.277508 l 1.67967,1.016854 1.83964,0.09166 c 3.26731,0.1628 6.19508,1.584433 6.94135,3.370503 0.12658,0.30295 0.37264,0.62708 0.5468,0.72029 0.42644,0.22822 0.67024,0.99216 0.67024,2.10013 0,0.65757 0.0747,0.97835 0.26473,1.1359 0.49917,0.41397 0.69508,1.20886 0.69508,2.82021 0,1.49102 0.0294,1.62793 0.57584,2.68461 0.84611,1.63612 3.7949,6.53866 4.71089,7.83216 0.43613,0.61588 0.91874,1.42545 1.07247,1.79905 0.15372,0.3736 0.33349,0.67953 0.39949,0.67986 0.3293,0.001 0.0575,0.92786 -0.47991,1.63494 -0.55272,0.7273 -2.40479,2.27648 -3.15939,2.64269 -0.17596,0.0854 -1.06451,0.28856 -1.97453,0.45149 -1.64725,0.29491 -1.65665,0.2992 -2.11631,0.9673 -0.25394,0.36909 -1.02994,1.18415 -1.72443,1.81124 l -1.26274,1.14018 -0.0725,1.25305 c -0.0804,1.38834 -0.37281,2.10228 -1.42108,3.46939 l -0.62272,0.81212 0.10398,2.06731 c 0.086,1.70955 0.16175,2.15694 0.43797,2.58523 0.54747,0.84885 0.53233,0.86977 1.41779,-1.95764 1.40638,-4.49071 2.3902,-7.53921 2.50383,-7.75848 0.22303,-0.43032 0.7851,-0.37101 1.2925,0.1364 0.57058,0.57057 0.60251,1.01455 0.17598,2.44624 -0.16659,0.55916 -0.56706,1.98846 -0.88991,3.17624 -0.32286,1.18776 -0.65086,2.33953 -0.72891,2.5595 -0.24011,0.67677 -1.14347,4.1873 -1.08902,4.23201 0.0282,0.0232 0.625,0.37189 1.32619,0.77492 0.92536,0.53189 1.32976,0.68726 1.47503,0.5667 0.11007,-0.0914 0.45086,-0.17321 0.75731,-0.1819 1.35022,-0.0382 2.22864,2.02617 1.27002,2.9848 -0.6744,0.67439 -1.41505,0.62174 -2.53491,-0.1802 -0.87322,-0.62532 -2.54838,-1.3451 -2.85108,-1.22506 -0.10511,0.0417 -0.34842,0.41582 -0.54069,0.83142 -0.38463,0.83137 -0.58282,2.26547 -0.85605,6.19456 -0.26747,3.84623 -0.58391,5.7955 -1.50618,9.27818 -0.61545,2.32407 -1.06948,5.20756 -1.14609,7.27858 -0.088,2.37917 -0.42951,4.81152 -0.83,5.9113 -0.14266,0.39179 -0.47798,1.00367 -0.74516,1.35974 l -0.48576,0.6474 0.0958,4.87906 c 0.0527,2.68347 0.18297,5.95882 0.28954,7.27857 0.17732,2.19594 0.25466,2.56548 0.91154,4.35564 0.39476,1.07586 0.97033,2.51033 1.27902,3.18772 1.4316,3.14147 1.26343,4.2054 -1.22249,7.73365 -0.50212,0.71262 -0.5064,0.73512 -0.42733,2.23956 0.0504,0.96011 0.18136,1.73218 0.35549,2.09673 0.25211,0.52783 0.2551,0.64701 0.0351,1.3977 l -0.24057,0.82066 1.27249,1.2418 c 1.99165,1.94356 2.52593,2.92924 2.99407,5.52354 0.21493,1.19111 0.0488,1.61049 -0.81703,2.06157 -0.61201,0.31889 -0.92874,0.35851 -2.92586,0.36607 -3.39386,0.0129 -3.94316,-0.2046 -5.39706,-2.13654 -0.23214,-0.30847 -1.12467,-0.96981 -2.05094,-1.5197 -0.90196,-0.53547 -1.77104,-1.15354 -1.93127,-1.37349 -0.19949,-0.27386 -0.3242,-0.82853 -0.39562,-1.75966 -0.0886,-1.15536 -0.18561,-1.49552 -0.64529,-2.26321 -0.6871,-1.1475 -1.57746,-3.09624 -1.7448,-3.81886 -0.0709,-0.30614 -0.13784,-2.89617 -0.14878,-5.75562 -0.0109,-2.85943 -0.0816,-6.44351 -0.15708,-7.96462 -0.14133,-2.84886 -0.0315,-4.62674 0.50368,-8.1529 0.34615,-2.28072 0.25079,-3.04982 -0.58686,-4.73279 l -0.69521,-1.3968 0.19857,-4.86261 0.19858,-4.86262 -0.35277,-0.47714 c -0.36626,-0.49538 -0.36626,-0.49173 -1.6e-4,-2.18373 0.12682,-0.58616 0.1244,-0.91737 -0.009,-1.23975 -0.29725,-0.71807 -0.56846,-0.53091 -0.68654,0.47377 -0.14349,1.22092 -1.02269,4.25142 -1.38246,4.7652 -0.34559,0.49352 -0.95238,3.04279 -1.51916,6.38228 -0.39278,2.31425 -0.53897,2.75155 -1.556296,4.65556 -0.487589,0.91255 -0.538069,1.42883 -0.740684,7.57512 l -0.123155,3.73589 -0.846868,1.62307 c -0.465777,0.89268 -0.914131,1.83903 -0.996341,2.10297 -0.206475,0.66291 -1.038572,5.87963 -1.416136,8.87827 -0.171711,1.36373 -0.427481,3.32066 -0.568377,4.34874 -0.247184,1.80359 -0.244403,1.93557 0.07918,3.75935 0.184447,1.03957 0.336137,2.14203 0.337088,2.44992 0.001,0.3079 0.108933,0.91319 0.239954,1.34508 0.488677,1.61088 0.222039,2.07336 -1.48585,2.57714 -0.503476,0.14851 -1.124115,0.33455 -1.379196,0.41342 -0.644827,0.19938 -2.129075,0.15177 -2.904255,-0.0932 z m 3.284388,-0.73381 c 1.054708,-0.17111 1.322139,-0.34226 1.166903,-0.74681 -0.06655,-0.17343 -0.267479,-0.20166 -0.857632,-0.12049 -1.024009,0.14084 -3.202272,0.14488 -3.63749,0.007 -0.617192,-0.19589 -0.368961,0.16543 0.412458,0.60036 0.835405,0.46499 1.363204,0.51209 2.915761,0.2602 z m 26.398495,-0.40713 c 0.98678,-0.11753 1.27974,-0.28274 1.27974,-0.72168 0,-0.37273 -0.33907,-0.38342 -1.34032,-0.0423 -0.5799,0.1976 -1.18426,0.2425 -2.57844,0.19159 -1.52834,-0.0558 -1.77321,-0.0331 -1.52365,0.14177 0.49481,0.34657 1.96283,0.68395 2.64297,0.60741 0.35193,-0.0395 1.03579,-0.11918 1.5197,-0.17683 z m -26.194868,-1.73157 c 0.587315,-0.1287 0.554372,-0.31341 -0.131493,-0.7373 -0.456371,-0.28205 -0.714566,-0.33352 -1.282506,-0.25568 -0.767314,0.10517 -1.665397,0.50169 -1.665397,0.7353 0,0.0794 0.413919,0.18995 0.91982,0.24569 0.505901,0.0558 1.027799,0.11962 1.159773,0.14195 0.131973,0.0224 0.311938,0.0239 0.399921,0.004 0.08798,-0.0204 0.357931,-0.0805 0.599882,-0.13349 z m 26.420638,-0.46454 c 0.6642,-0.53147 0.43242,-0.81123 -0.57342,-0.6921 -0.76717,0.0909 -2.05188,0.67679 -2.05188,0.93582 0,0.0718 0.48591,0.13015 1.07979,0.12972 0.89004,-6.4e-4 1.16163,-0.0662 1.54551,-0.37344 z m -0.41879,-2.34882 c -0.0259,-0.0689 -0.39619,-0.52814 -0.82307,-1.02062 -0.85302,-0.98412 -0.97108,-1.01775 -2.33275,-0.66436 -0.48968,0.12708 -1.08829,0.27242 -1.33024,0.32298 -0.24195,0.0505 -0.43991,0.16947 -0.43991,0.26425 0,0.11921 0.50728,0.13773 1.64612,0.0601 1.40616,-0.0958 1.67714,-0.0748 1.85887,0.14415 0.1916,0.23087 0.13927,0.24628 -0.52634,0.15505 -0.6189,-0.0848 -0.73909,-0.0588 -0.73909,0.16039 0,0.26255 0.47408,0.35723 1.46435,0.29243 0.33876,-0.0222 0.40909,0.0313 0.34805,0.26472 -0.0647,0.24734 4.8e-4,0.2812 0.42223,0.2193 0.2743,-0.0403 0.4776,-0.12954 0.45178,-0.1984 z m -7.20854,-38.90879 c 0.0859,-0.10998 0.22915,-0.48791 0.3184,-0.83984 0.0892,-0.35193 0.57544,-2.0436 1.08043,-3.75926 0.50498,-1.71567 1.00757,-3.44332 1.11687,-3.83925 0.1093,-0.39592 0.57802,-2.01561 1.04159,-3.59929 0.46358,-1.58369 0.93556,-3.20338 1.04886,-3.5993 0.1133,-0.39592 0.3257,-1.11578 0.472,-1.59968 0.14631,-0.48392 0.32469,-1.09579 0.39639,-1.35975 0.0717,-0.26395 0.32466,-1.12777 0.56212,-1.91961 0.3937,-1.31287 1.23941,-4.19506 1.76022,-5.99883 0.11431,-0.39593 0.82559,-2.84344 1.58059,-5.43894 0.75501,-2.59549 1.66542,-5.72688 2.02314,-6.95864 0.35771,-1.23175 0.835,-2.84189 1.06064,-3.57807 0.37314,-1.21744 0.38748,-1.36129 0.15859,-1.59017 -0.13839,-0.1384 -0.28842,-0.21485 -0.33339,-0.16988 -0.0706,0.0706 -0.99911,3.10079 -2.00332,6.53789 -0.16709,0.57189 -0.52798,1.79565 -0.80198,2.71947 -0.274,0.92382 -0.63445,2.14758 -0.801,2.71946 -0.16655,0.5719 -0.63394,2.15559 -1.03864,3.51932 -0.40469,1.36373 -0.87208,2.94742 -1.03863,3.51931 -0.3744,1.28557 -1.22071,4.15221 -1.51127,5.11899 -0.11898,0.39593 -0.44777,1.54771 -0.73061,2.55951 -0.28285,1.0118 -0.57677,1.98361 -0.65314,2.15957 -0.12206,0.28119 -0.35773,1.06043 -1.18534,3.91924 -0.11462,0.39592 -0.40068,1.36772 -0.63569,2.15957 -0.75186,2.53336 -1.2173,4.11358 -1.76689,5.99882 -0.29496,1.01181 -0.61291,2.09112 -0.70654,2.39848 -0.24957,0.81926 -0.21456,1.12083 0.13011,1.12083 0.16519,0 0.37062,-0.09 0.45649,-0.19995 z m -0.45347,-29.16007 c 0.49533,-0.54433 1.06721,-1.79636 0.89786,-1.9657 -0.18954,-0.18955 -0.88576,0.38053 -1.04167,0.85294 -0.0929,0.28138 -0.34152,0.67382 -0.55257,0.87209 -0.38212,0.35898 -0.39072,0.80634 -0.0155,0.80634 0.10843,0 0.42877,-0.25455 0.71188,-0.56567 z m -3.35008,-0.46532 c 0.22003,-0.26512 0.16836,-0.91693 -0.0791,-0.99824 -0.0915,-0.0301 -0.30465,0.0464 -0.47358,0.16991 -0.26408,0.1931 -0.28047,0.28311 -0.11694,0.64202 0.21522,0.47236 0.39154,0.52141 0.66966,0.18631 z m 1.65571,-0.49542 c 0.24978,-0.34312 0.2562,-0.40903 0.0476,-0.48905 -0.35264,-0.13532 -0.57628,0.0607 -0.57628,0.50519 0,0.49342 0.16129,0.4885 0.52863,-0.0161 z m 4.06247,0.0466 c 0.087,-0.11513 0.1123,-0.94654 0.0596,-1.95999 l -0.0916,-1.76002 -0.9119,-1.43935 c -0.50155,-0.79164 -1.13144,-1.67775 -1.39976,-1.96915 l -0.48787,-0.52982 -1.03966,0.92974 c -0.57182,0.51136 -1.04082,0.96572 -1.04221,1.00972 -0.001,0.044 -0.0644,0.17756 -0.13994,0.29681 -0.11332,0.17885 -0.2099,0.16933 -0.55123,-0.0543 -0.39334,-0.25774 -0.44778,-0.25474 -1.0999,0.0603 -0.37735,0.18233 -1.04359,0.4673 -1.48053,0.63328 -1.09053,0.41425 -1.21121,0.65895 -0.65413,1.32646 1.05284,1.26156 2.48242,2.69642 2.68649,2.69642 0.12135,0 0.35863,-0.10091 0.52729,-0.22423 0.30182,-0.22069 0.30159,-0.23644 -0.0141,-0.9998 -0.23417,-0.56625 -0.41993,-0.78981 -0.68823,-0.82829 -0.25093,-0.0359 -0.33824,-0.12895 -0.27527,-0.29304 0.0507,-0.13217 0.0922,-0.34155 0.0922,-0.46529 0,-0.13669 0.13809,-0.21003 0.3519,-0.18688 0.34364,0.0372 0.4098,0.14233 1.38318,2.19769 0.29321,0.61914 0.89681,0.77026 1.19409,0.29898 0.23428,-0.37141 -0.77463,-2.80157 -1.2104,-2.91552 -0.40604,-0.10619 -0.26415,-0.51371 0.16279,-0.46753 0.17962,0.0195 0.41445,-0.0706 0.52185,-0.19996 0.32099,-0.38677 0.50937,-0.2713 0.39641,0.24298 -0.0778,0.35438 0.0185,0.73768 0.37204,1.47971 0.78576,1.64933 1.44809,2.12949 1.81788,1.31786 0.15984,-0.35079 0.10654,-0.55141 -0.4085,-1.53741 -0.5358,-1.02573 -0.65263,-1.73842 -0.28497,-1.73842 0.0636,0 0.38378,0.49664 0.71163,1.10364 0.32786,0.607 0.70234,1.14441 0.83216,1.19422 0.19483,0.0747 0.21813,0.34302 0.13346,1.53584 -0.0876,1.2343 -0.0669,1.44526 0.14174,1.44526 0.13438,0 0.31234,-0.09 0.39546,-0.19996 z m 13.73299,-0.18921 c 0.19838,-0.30275 0.21571,-0.46263 0.0781,-0.71986 -0.3306,-0.61773 -1.2855,-0.32863 -1.2855,0.3892 0,0.75049 0.79053,0.96697 1.20745,0.33066 z m -7.4739,-4.47885 0.32385,-0.54889 -0.52785,-0.69087 c -0.44953,-0.58836 -0.54329,-0.86747 -0.63194,-1.88126 -0.11355,-1.2983 -0.14204,-1.37853 -0.42703,-1.2024 -0.28057,0.17342 -0.0713,2.29183 0.36667,3.71254 0.19666,0.63788 0.40591,1.15978 0.465,1.15978 0.0591,0 0.25318,-0.24701 0.4313,-0.5489 z m -16.12915,-0.4109 c 0.28013,-0.29988 0.60743,-0.4799 0.87251,-0.4799 0.23332,0 0.68906,-0.17997 1.01275,-0.39992 0.3237,-0.21996 0.7158,-0.39992 0.87134,-0.39992 0.3512,0 0.37373,-0.4108 0.0298,-0.54278 -0.60855,-0.23353 -1.18643,-0.0717 -2.0889,0.58507 -0.51558,0.37518 -1.13538,0.76956 -1.37733,0.87639 -0.61646,0.27218 -0.5592,0.76742 0.0958,0.82834 0.0747,0.007 0.33751,-0.20332 0.58408,-0.46728 z m -0.78235,-1.39973 c 0.28707,-0.24195 0.88063,-0.61988 1.31902,-0.83983 0.87688,-0.43997 1.07936,-0.72233 0.62207,-0.86746 -0.30776,-0.0977 -1.78767,0.44273 -2.37554,0.86746 -0.34512,0.24935 -0.70282,0.81391 -0.70282,1.10927 0,0.31777 0.61282,0.17259 1.13727,-0.26944 z m 6.44068,-0.69227 c 0.23239,-0.18279 0.78746,-0.89266 1.2335,-1.57747 0.5077,-0.77948 1.08939,-1.44135 1.55546,-1.76986 0.74159,-0.52272 0.74309,-0.52567 0.38776,-0.7616 -0.28893,-0.19183 -0.35671,-0.38712 -0.35671,-1.02769 0,-0.86495 -0.12884,-1.18681 -0.83643,-2.08955 -0.41312,-0.52706 -0.55359,-0.59989 -1.15709,-0.59989 -0.37778,0 -0.96562,0.12531 -1.30629,0.27846 -0.47483,0.21345 -1.22632,0.29747 -3.21923,0.35993 l -2.59981,0.0815 -0.59956,0.64888 c -0.38192,0.41332 -0.98811,0.81255 -1.66991,1.09977 -0.58869,0.24798 -1.114505,0.56598 -1.168479,0.70663 -0.11706,0.30505 0.314977,0.6641 0.799099,0.6641 0.47021,0 2.1321,-1.01314 2.76162,-1.68357 0.63008,-0.67104 0.7144,-0.68787 0.58174,-0.11608 -0.1684,0.72588 -0.48009,1.09232 -1.37372,1.61507 -0.46742,0.27343 -1.19316,0.80985 -1.61275,1.19203 l -0.762894,0.69488 0.381514,0.20418 c 0.33596,0.17981 0.46523,0.152 1.08283,-0.23294 0.38572,-0.24043 1.06848,-0.7477 1.51723,-1.12727 0.87173,-0.73734 1.1837,-0.71811 1.1837,0.073 0,0.51612 0.43107,0.98041 0.91025,0.98041 0.65595,0 1.16934,0.4537 1.16934,1.03341 0,0.64128 0.31072,0.93036 1.43972,1.33945 1.12814,0.4088 1.15721,0.40905 1.65911,0.0142 z m -6.61832,-0.8846 c 0.79194,-0.40537 1.4399,-0.79248 1.4399,-0.86024 0,-0.0678 -0.10798,-0.21282 -0.23996,-0.32234 -0.13197,-0.10954 -0.23995,-0.33431 -0.23995,-0.4995 0,-0.16519 -0.0752,-0.30034 -0.16705,-0.30034 -0.32865,0 -2.71239,2.1312 -2.71239,2.42504 0,0.44372 0.3419,0.36488 1.91945,-0.44262 z m -3.039226,-2.38854 c 0,-0.54306 -1.250914,-1.53362 -3.359343,-2.66016 -2.83559,-1.51507 -4.149892,-2.16788 -4.639091,-2.30422 -0.348299,-0.0971 -0.317324,-0.0344 0.239953,0.48486 2.431652,2.26611 3.463648,3.01055 5.56706,4.01583 1.553686,0.74255 2.191421,0.87748 2.191421,0.46369 z m 17.011516,-0.52257 c 0.63479,-0.24573 0.90168,-0.27083 1.4778,-0.13899 0.59922,0.13712 0.75049,0.11802 1.0237,-0.12923 0.74217,-0.67167 2.05352,-4.20191 1.42724,-3.84227 -0.12337,0.0709 -0.3323,0.21758 -0.46427,0.32608 -0.13197,0.1085 -1.2552,0.71784 -2.49606,1.3541 -1.63472,0.83821 -2.33128,1.28408 -2.52903,1.61885 -0.15011,0.25412 -0.4846,0.57149 -0.7433,0.70527 -0.26368,0.13635 -0.47038,0.37346 -0.47038,0.53954 0,0.27973 0.0559,0.28429 0.9998,0.0814 0.54989,-0.11819 1.34842,-0.34984 1.7745,-0.51477 z m -16.876242,-1.44865 c 0.233538,-0.16375 0.700742,-0.38732 1.038222,-0.49683 0.58974,-0.19137 1.70594,-1.02842 1.70594,-1.27931 0,-0.0666 -0.44991,-0.35921 -0.9998,-0.65024 -2.346086,-1.24163 -4.32755,-2.93261 -6.168822,-5.26448 -2.733991,-3.46245 -3.209523,-3.96436 -4.083351,-4.30983 -0.454114,-0.17953 -1.303861,-0.45026 -1.888326,-0.60161 -0.943249,-0.24425 -1.190424,-0.25107 -2.19957,-0.0607 -1.215281,0.22931 -1.414904,0.45897 -0.696991,0.80187 l 0.439914,0.21012 -0.63038,0.13933 c -0.34671,0.0766 -0.663945,0.1729 -0.704965,0.21392 -0.04103,0.041 0.300656,0.23053 0.759282,0.42112 0.861372,0.35797 0.859643,0.60893 -0.0042,0.61396 -0.231179,0.001 -0.506013,0.10569 -0.61074,0.23188 -0.157387,0.18964 -0.08447,0.25886 0.420327,0.39903 0.335907,0.0933 0.700723,0.17 0.810701,0.17049 0.109979,4.8e-4 0.199961,0.0729 0.199961,0.16086 0,0.088 -0.197961,0.16107 -0.439913,0.16241 -0.241954,0.001 -0.547894,0.0722 -0.679867,0.15752 -0.190783,0.1233 -0.158003,0.15706 0.159968,0.16474 0.219957,0.005 0.61588,0.10577 0.879828,0.22324 0.405283,0.18037 0.436377,0.23165 0.19996,0.32984 -0.153969,0.064 -0.279944,0.21042 -0.279944,0.3255 0,0.36956 1.419063,1.47301 2.849422,2.21571 0.82167,0.42663 2.049369,1.27921 3.003449,2.08574 1.112574,0.94052 2.329675,1.76032 3.919233,2.63989 1.268042,0.70167 2.366403,1.27976 2.440805,1.28464 0.0744,0.005 0.326352,-0.12509 0.55989,-0.28885 z m -7.291142,-0.24651 c -0.0205,-0.0558 -0.520126,-0.55001 -1.110298,-1.0983 -0.590171,-0.54828 -1.466427,-1.37481 -1.947239,-1.83672 -0.480811,-0.46191 -0.909408,-0.83984 -0.952435,-0.83984 -0.177394,0 0.139154,2.15278 0.367877,2.50185 0.324406,0.4951 1.378958,1.1861 2.037373,1.33498 0.590322,0.13349 1.661342,0.0921 1.604722,-0.0619 z m 22.755384,-0.89959 c 0.0558,-0.0903 0.294,-0.14427 0.52934,-0.11998 0.34239,0.0353 0.43846,-0.0303 0.48073,-0.32879 0.0498,-0.35157 0.0651,-0.35625 0.26588,-0.0816 0.20017,0.27376 0.22513,0.26488 0.41276,-0.14694 0.19629,-0.4308 0.46829,-0.59247 0.46829,-0.27834 0,0.088 0.1,0.15996 0.22216,0.15996 0.12975,0 0.26859,-0.24758 0.3338,-0.59519 0.0919,-0.48995 0.1389,-0.54653 0.26571,-0.31995 0.22242,0.39744 0.45809,0.33816 0.45809,-0.11521 0,-0.5045 0.19652,-0.61682 0.57631,-0.32934 0.44992,0.34056 0.54215,0.29413 0.55609,-0.27999 0.007,-0.28594 0.049,-0.42991 0.0933,-0.31993 0.13743,0.34059 0.53377,0.22239 0.53638,-0.15997 0.004,-0.47743 0.23992,-0.85481 0.38692,-0.61696 0.1852,0.29966 0.57044,0.19589 0.57044,-0.15367 0,-0.25411 0.0716,-0.30798 0.30924,-0.23256 0.25747,0.0817 0.31775,0.01 0.35994,-0.42914 0.0372,-0.3871 0.1251,-0.52138 0.33062,-0.50507 0.17154,0.0136 0.27995,-0.0897 0.27995,-0.26686 0,-0.48774 0.1751,-0.7793 0.41316,-0.68795 0.16566,0.0635 0.22671,-0.0469 0.22671,-0.41003 0,-0.27336 0.072,-0.49701 0.15997,-0.49701 0.0879,0 0.16118,-0.30595 0.16267,-0.67987 l 0.003,-0.67987 0.33295,0.5199 c 0.4129,0.64471 0.55485,0.65309 0.67747,0.04 0.0563,-0.28148 0.19684,-0.47991 0.33993,-0.47991 0.27721,0 0.30428,-0.13686 0.0931,-0.47069 -0.0997,-0.15754 -0.0639,-0.29073 0.11251,-0.41978 0.23251,-0.17001 0.2233,-0.21101 -0.0915,-0.40762 -0.40548,-0.25323 -0.45515,-0.46156 -0.11006,-0.46156 0.55768,0 0.17955,-0.28474 -0.50223,-0.37818 -1.33472,-0.18295 -2.22285,-0.10796 -3.37908,0.28529 -2.17038,0.7382 -3.16035,1.30949 -3.97912,2.29628 -1.41708,1.70789 -2.21397,2.46262 -3.77728,3.57744 -0.85783,0.61173 -1.55969,1.1795 -1.55969,1.26171 0,0.2223 1.39577,1.46783 2.06059,1.83878 0.31839,0.17764 0.64995,0.48359 0.7368,0.67986 0.16654,0.37639 0.47416,0.46837 0.64451,0.19273 z m -12.33498,-1.71549 c 0.0498,-0.24196 0.27167,-2.22759 0.493,-4.41252 0.37915,-3.74288 0.54317,-6.93744 0.86376,-16.82332 0.12099,-3.73093 0.16967,-4.23331 0.47275,-4.87905 0.54591,-1.16313 0.46827,-1.63713 -0.38232,-2.33413 l -0.7272,-0.59589 -0.59254,0.54862 c -0.32589,0.30174 -0.78042,0.71213 -1.01006,0.91197 l -0.41753,0.36335 -1.18855,-1.56654 c -1.555359,-2.04999 -1.638329,-2.18853 -2.454245,-4.098051 -0.382521,-0.895227 -0.791244,-1.644783 -0.908273,-1.665682 -0.117029,-0.0209 -1.040618,0.237305 -2.05242,0.573787 -1.97378,0.656397 -1.942786,0.625494 -1.70876,1.703776 0.09697,0.44678 0.04735,0.51303 -0.718796,0.95981 -0.735023,0.42863 -0.85184,0.57391 -1.093302,1.35973 -0.312325,1.01644 -0.745236,7.21579 -0.585349,8.38229 0.05556,0.40532 0.251803,1.03253 0.436106,1.39379 0.315572,0.61858 0.328633,0.81195 0.224176,3.31884 -0.121287,2.91078 -0.01574,3.66188 0.660668,4.7016 0.308678,0.47447 0.491194,0.59988 0.873041,0.59988 1.009975,0 2.072185,-0.77683 2.072185,-1.51546 0,-0.29258 -1.58824,-3.62393 -2.071414,-4.34481 l -0.336013,-0.50133 0.683816,-0.40543 0.683815,-0.40544 0.10403,0.34687 c 0.05722,0.19078 0.111207,0.67806 0.119977,1.08285 0.02303,1.06283 0.297383,1.73968 0.988686,2.43917 0.706607,0.71496 0.873738,1.27435 0.636515,2.13042 -0.501457,1.80962 -1.282642,2.34657 -2.776707,1.9086 -0.451276,-0.13229 -0.847161,-0.21387 -0.879743,-0.18128 -0.03258,0.0326 0.104507,0.50833 0.304643,1.05722 0.336659,0.92332 0.441115,1.04641 1.396192,1.64524 l 1.03231,0.64726 -0.462951,0.14955 c -0.254623,0.0823 -0.494915,0.17766 -0.53398,0.21202 -0.03907,0.0344 0.392849,0.53228 0.959812,1.10652 0.762534,0.77232 1.363931,1.20177 2.310589,1.64997 1.194039,0.56534 3.072692,1.87636 2.914892,2.03416 -0.0386,0.0386 -0.410637,-0.0758 -0.826778,-0.25417 -1.040719,-0.4461 -2.074731,-0.60671 -1.979384,-0.30745 0.116171,0.36462 2.43285,2.03598 3.852742,2.77955 0.72462,0.37947 1.36576,0.69752 1.42476,0.70678 0.059,0.009 0.14803,-0.18112 0.19785,-0.42307 z m 8.37718,-1.38692 c 1.39306,-0.70843 4.185,-2.96494 5.50245,-4.44721 0.56926,-0.64047 1.08325,-1.24658 1.14221,-1.34689 0.1264,-0.21509 1.12528,-3.3418 1.5713,-4.91857 0.3651,-1.29062 0.89488,-3.91203 1.03976,-5.14471 0.0558,-0.47541 0.16388,-0.82589 0.24,-0.77884 0.24931,0.15408 0.14524,1.75547 -0.20304,3.12407 -0.45427,1.78517 -0.59626,2.54161 -0.47692,2.54089 0.0541,-3.2e-4 0.33244,-0.14324 0.6184,-0.31759 0.28594,-0.17434 0.51989,-0.27617 0.51989,-0.22628 0,0.0499 -0.26212,0.41058 -0.58249,0.80155 -0.32037,0.39097 -0.5433,0.75004 -0.49541,0.79794 0.048,0.0479 0.382,-0.0634 0.74246,-0.24727 0.36046,-0.18389 0.65538,-0.30372 0.65538,-0.26628 0,0.0374 -0.56846,0.54779 -1.26325,1.1341 -1.15393,0.97379 -1.27271,1.12914 -1.3726,1.79527 -0.0601,0.40109 -0.1517,0.83959 -0.20345,0.97446 -0.11021,0.2872 -0.16,0.2991 2.19942,-0.5253 2.65752,-0.92855 4.45722,-1.22291 7.47594,-1.22276 1.42829,7e-5 2.66507,0.0423 2.7484,0.0938 0.39177,0.24213 0.23448,-0.25052 -0.40589,-1.27131 -0.64205,-1.02347 -3.43725,-5.68493 -4.14578,-6.91376 -0.23289,-0.40392 -0.37355,-0.49578 -0.65211,-0.42587 -0.24577,0.0617 -0.40458,-0.003 -0.51554,-0.2105 -0.14081,-0.26311 -0.5927,-3.04794 -0.91637,-5.64728 -0.0713,-0.57268 -0.24215,-1.03769 -0.48937,-1.33202 -0.31413,-0.37399 -0.37981,-0.63135 -0.37981,-1.48825 0,-1.01736 -0.0161,-1.05625 -0.8929,-2.15514 -0.9795,-1.22763 -1.78594,-1.80631 -3.54848,-2.5463 -1.07763,-0.45243 -1.28092,-0.48456 -2.79851,-0.44231 l -1.63647,0.0456 -1.8903,2.43523 -1.89031,2.43522 -1.51407,-1.13805 c -0.83274,-0.62593 -1.53667,-1.1099 -1.56428,-1.07549 -0.0276,0.0344 -0.26591,0.46746 -0.52956,0.96235 l -0.47935,0.89978 0.28834,0.56202 c 0.85247,1.66164 1.36797,3.71038 1.74035,6.91659 0.56972,4.90546 0.67165,6.62616 0.75093,12.67752 0.0707,5.3925 0.12099,6.43874 0.3098,6.43874 0.12398,0 0.70954,-0.24619 1.30123,-0.54708 z m 2.15164,-17.61696 c -0.0178,-0.21578 0.0267,-0.39232 0.099,-0.39232 0.0723,0 0.12094,0.1425 0.10811,0.31667 -0.0349,0.4741 -0.17002,0.52345 -0.20709,0.0756 z m 0.96375,0.008 c 0,-0.21675 0.063,-0.35516 0.13998,-0.30758 0.077,0.0476 0.13997,0.18599 0.13997,0.30758 0,0.12159 -0.063,0.26 -0.13997,0.30758 -0.077,0.0476 -0.13998,-0.0908 -0.13998,-0.30758 z m -1.63723,0.04 c 0.001,-0.10998 0.0643,-0.29763 0.13997,-0.417 0.17765,-0.28036 0.37414,0.0154 0.24091,0.36257 -0.1158,0.30176 -0.38438,0.34014 -0.38088,0.0544 z m 2.13134,-0.0699 c -0.0569,-0.15955 -0.13216,-0.34325 -0.16715,-0.40823 -0.035,-0.065 0.0425,-0.0774 0.17227,-0.0276 0.29881,0.11467 0.45525,0.50539 0.25251,0.63069 -0.0848,0.0524 -0.2007,-0.0353 -0.25763,-0.19484 z m -2.65245,0.0177 c -0.1377,-0.13771 0.15573,-0.70777 0.36432,-0.70777 0.21236,0 0.19325,0.20557 -0.05,0.53826 -0.11239,0.1537 -0.25383,0.22998 -0.31431,0.16951 z m 3.07817,-0.46782 c -0.11479,-0.1383 -0.13034,-0.23995 -0.0367,-0.23995 0.0893,0 0.20387,0.10798 0.25451,0.23995 0.0506,0.13198 0.0671,0.23996 0.0367,0.23996 -0.0305,0 -0.14499,-0.10798 -0.25451,-0.23996 z m -3.51931,-0.23992 c 0.0942,-0.17596 0.24067,-0.31993 0.32556,-0.31993 0.21793,0 0.1917,0.14546 -0.0742,0.41134 -0.32705,0.32705 -0.45118,0.28191 -0.25138,-0.0914 z m 3.8699,-0.0103 c -0.10633,-0.17027 -0.12956,-0.30959 -0.0516,-0.30959 0.21955,0 0.53319,0.44105 0.38067,0.53531 -0.0746,0.0461 -0.22272,-0.0554 -0.32906,-0.22571 z m -2.7276,-0.14768 c -0.38354,-0.17704 -0.94328,-0.32189 -1.24387,-0.32189 h -0.54653 l 0.25048,-0.48436 c 0.16586,-0.32075 0.2156,-0.6702 0.14725,-1.03454 -0.14655,-0.78122 0.40245,-1.86091 1.14749,-2.25668 0.31436,-0.16699 0.69678,-0.54574 0.84982,-0.84167 l 0.27824,-0.53806 0.30929,0.4885 c 0.17012,0.26868 0.56029,0.65535 0.86704,0.85929 0.6998,0.46521 1.32602,1.63707 1.20726,2.25913 -0.0485,0.25375 0.0181,0.65282 0.15207,0.91188 0.3231,0.62481 0.31709,0.63651 -0.32731,0.63651 -0.31103,0 -0.72495,0.10266 -0.91981,0.22812 -0.63523,0.409 -1.41553,0.44269 -2.17142,0.0938 z m 3.1766,-0.7618 c -3.2e-4,-0.13504 -2.04484,-3.89607 -2.21425,-4.07318 -0.0812,-0.0849 -1.83734,3.10512 -2.23796,4.06535 -0.0293,0.0703 0.96048,0.1278 2.19956,0.1278 1.2391,0 2.25279,-0.054 2.25265,-0.11997 z m -3.57377,-0.46796 c -0.23693,-0.23693 -0.0791,-0.8198 0.32045,-1.18383 0.23415,-0.2133 0.36403,-0.28189 0.28861,-0.15244 -0.0754,0.12946 -0.12256,0.42622 -0.10479,0.65946 0.0323,0.42339 -0.30501,0.87606 -0.50427,0.67681 z m 0.98055,-0.64412 c -0.065,-0.73982 0.11794,-1.48741 0.36393,-1.48741 0.24551,0 0.41932,0.90629 0.3068,1.59968 -0.0642,0.39593 -0.12811,0.57589 -0.14192,0.39993 -0.0239,-0.30452 -0.0356,-0.30607 -0.24325,-0.0323 -0.19555,0.25785 -0.22514,0.20813 -0.28556,-0.47991 z m 1.31935,0.44273 c -0.21712,-0.4057 -0.21141,-0.69759 0.011,-0.56015 0.0971,0.06 0.0468,-0.0977 -0.11186,-0.35049 l -0.28843,-0.45961 0.4318,0.38781 c 0.27571,0.24763 0.4318,0.55121 0.4318,0.83984 0,0.52169 -0.23378,0.59198 -0.47428,0.1426 z m -4.32479,-0.73038 c 0,-0.18041 0.11228,-0.24626 0.35993,-0.21109 0.19797,0.0281 0.35993,0.12311 0.35993,0.21109 0,0.088 -0.16196,0.18297 -0.35993,0.21109 -0.24765,0.0352 -0.35993,-0.0307 -0.35993,-0.21109 z m 5.91885,0.0578 c 0,-0.0758 0.17996,-0.13778 0.39992,-0.13778 0.21995,0 0.39992,0.0276 0.39992,0.0613 0,0.0337 -0.17997,0.0957 -0.39992,0.13778 -0.21996,0.0421 -0.39992,0.0144 -0.39992,-0.0613 z m -5.55892,-0.63118 c -0.19796,-0.0749 -0.35993,-0.17035 -0.35993,-0.21212 0,-0.0947 0.65231,0.0248 0.76817,0.14061 0.16673,0.16673 -0.0542,0.20544 -0.40824,0.0715 z m 5.56137,0.0485 c -0.003,-0.24815 0.39654,-0.4238 0.63236,-0.27805 0.0936,0.0579 0.12408,0.17991 0.0676,0.27121 -0.0662,0.10709 -0.15226,0.089 -0.24256,-0.051 -0.11606,-0.17996 -0.16688,-0.17605 -0.2975,0.0229 -0.11041,0.1682 -0.15824,0.17866 -0.15996,0.035 z m -5.4014,-0.62082 c -0.10997,-0.0444 -0.19996,-0.14921 -0.19996,-0.23296 0,-0.0936 0.11511,-0.0907 0.2989,0.008 0.1644,0.088 0.35591,0.10852 0.42557,0.0456 0.0697,-0.0629 0.0749,-0.0244 0.0116,0.0856 -0.12106,0.21037 -0.20938,0.22586 -0.5361,0.094 z m 5.16395,-0.046 c -0.0517,-0.0836 0.0477,-0.22774 0.22081,-0.32037 0.37568,-0.20106 0.66828,0.10377 0.31462,0.32778 -0.28621,0.18128 -0.41995,0.17943 -0.53543,-0.007 z m -4.79259,-0.57935 c -0.16941,-0.12387 -0.27716,-0.25607 -0.23945,-0.29377 0.0377,-0.0377 0.20716,0.0328 0.37656,0.15666 0.16941,0.12387 0.27716,0.25607 0.23946,0.29378 -0.0377,0.0377 -0.20716,-0.0328 -0.37657,-0.15667 z m 4.32841,0.13876 c -0.13988,-0.13987 0.38886,-0.70015 0.56059,-0.59402 0.0762,0.0471 0.13859,0.15086 0.13859,0.23055 0,0.1944 -0.57127,0.49138 -0.69918,0.36347 z m 0.39964,-0.32729 c 0.19898,-0.25372 0.19332,-0.25938 -0.0604,-0.0604 -0.15397,0.12075 -0.27995,0.24673 -0.27995,0.27995 0,0.13166 0.13137,0.0469 0.34035,-0.21955 z m -4.30218,-0.2618 c -0.23148,-0.50803 -0.0377,-0.54426 0.37775,-0.0706 0.1676,0.19109 0.2209,0.29862 0.11843,0.23895 -0.10246,-0.0597 -0.21316,-0.0279 -0.24599,0.0706 -0.0329,0.0985 -0.14543,-0.009 -0.25019,-0.23895 z m 3.62374,-0.22259 c 0.1068,-0.20042 0.26734,-0.31919 0.35677,-0.26392 0.0894,0.0553 0.1398,0.11364 0.11195,0.12973 -0.0279,0.0161 -0.1884,0.13485 -0.35677,0.26393 -0.28861,0.22124 -0.29502,0.21381 -0.11195,-0.12974 z m -23.388041,14.94001 c -0.04675,-0.12184 -0.342399,-0.98278 -0.65699,-1.91321 l -0.571983,-1.69168 v -2.90646 -2.90646 l -0.55989,-0.61973 c -0.493714,-0.54648 -0.55989,-0.72146 -0.55989,-1.48044 0,-0.72617 0.05,-0.87379 0.319937,-0.94437 0.231232,-0.0605 0.319937,-0.2182 0.319937,-0.5689 0,-0.44523 -0.04945,-0.48931 -0.599882,-0.53487 -0.588715,-0.0487 -0.606282,-0.0696 -0.94364,-1.121 -0.189068,-0.58924 -0.391847,-1.45308 -0.450623,-1.91963 -0.05877,-0.46654 -0.211232,-1.22343 -0.338792,-1.68196 -0.217457,-0.78167 -0.299127,-0.87357 -1.309032,-1.4729 l -1.077106,-0.63922 -0.364793,0.43311 c -0.53154,0.63109 -1.474847,2.06238 -1.474847,2.2378 0,0.0829 0.55651,0.20122 1.23669,0.26286 1.587411,0.14384 2.190037,0.43696 2.705034,1.31574 l 0.411504,0.70218 -0.684419,0.88713 c -0.790443,1.02456 -0.755583,1.02284 -2.729131,0.13519 -1.431086,-0.64367 -2.125604,-0.68776 -2.875639,-0.18256 -0.818926,0.5516 -1.259486,1.48983 -1.422051,3.02843 -0.132029,1.24958 -0.474985,2.52271 -0.784004,2.9104 -0.401867,0.50417 -0.704721,2.19112 -0.720453,4.01303 l -0.01658,1.91962 2.159578,0.18324 c 1.187767,0.10077 2.492043,0.26093 2.89839,0.35589 0.88923,0.20781 3.293576,0.94002 3.74031,1.13905 0.69658,0.31036 3.701553,1.2461 4.056324,1.26314 0.259725,0.0124 0.350593,-0.0508 0.292036,-0.20342 z m -4.929126,-15.07424 c 0.28634,-0.40623 0.483717,-0.83477 0.438613,-0.95231 -0.04511,-0.11754 -0.358642,-0.39678 -0.69675,-0.62053 -0.502282,-0.33239 -0.876848,-0.42372 -2.047498,-0.49921 l -1.432754,-0.0924 -0.519899,0.78284 c -0.285943,0.43055 -0.519899,0.85966 -0.519899,0.95357 0,0.0977 0.461741,0.19849 1.07979,0.23566 0.828261,0.0498 1.228841,0.16361 1.719663,0.48855 0.965732,0.63934 1.361028,0.58017 1.978734,-0.29617 z m 3.081617,-3.25811 c 0.235108,-0.43887 0.2986,-0.90168 0.2986,-2.17657 v -1.61918 l 1.079788,-0.30815 c 0.826155,-0.23576 1.089398,-0.382074 1.120696,-0.622876 0.08683,-0.667978 -0.105625,-0.692393 -2.360454,-0.299472 -2.294052,0.399757 -2.699251,0.539312 -3.009825,1.036618 -0.156988,0.25138 -0.148813,0.39845 0.04169,0.75018 0.497973,0.91941 0.517758,0.93303 0.879758,0.60542 0.181876,-0.16459 0.384231,-0.24575 0.44968,-0.18036 0.06545,0.0654 0.144054,0.74283 0.17468,1.50539 0.07866,1.95865 0.666407,2.53912 1.325387,1.309 z m 13.38957,-1.69956 c 0.98236,-0.93339 1.78612,-1.74544 1.78612,-1.80456 0,-0.0591 -0.55789,-0.3831 -1.23976,-0.71995 -1.1896,-0.587665 -2.92979,-1.75634 -3.89246,-2.614076 -0.527134,-0.469682 -0.763657,-1.090268 -0.82392,-2.161796 -0.02348,-0.417485 -0.09063,-0.759418 -0.149224,-0.759852 -0.17228,-0.0013 -0.998865,1.148085 -1.297584,1.804286 -0.151555,0.332921 -0.275552,0.806324 -0.275552,1.052009 0,0.631299 1.82358,4.105949 2.95187,5.624499 0.52165,0.70208 0.99479,1.27651 1.05142,1.27651 0.0566,0 0.90672,-0.76368 1.88909,-1.69707 z m 7.61674,0.93721 c 0.29054,-0.32993 1.03948,-1.17576 1.66432,-1.87963 0.62484,-0.70386 1.13344,-1.38772 1.13023,-1.5197 -0.005,-0.20314 -3.94677,-3.51931 -4.18329,-3.51931 -0.0447,0 -0.17483,0.334584 -0.28932,0.74352 -0.3201,1.143266 -1.58179,2.66715 -2.59287,3.13168 -0.73008,0.33543 -0.5496,0.64548 0.83984,1.44276 0.39592,0.22718 1.1824,0.81525 1.74774,1.30681 0.56533,0.49157 1.0565,0.89376 1.09149,0.89376 0.035,0 0.30132,-0.26995 0.59186,-0.59989 z m -7.17073,-9.424036 1.53489,-0.425802 1.09628,0.353078 c 1.02812,0.331131 1.12703,0.337172 1.59112,0.09719 0.28195,-0.145805 0.79456,-0.716703 1.1915,-1.327003 0.38316,-0.58911 0.9607,-1.323059 1.28341,-1.630999 0.66838,-0.637777 0.93242,-1.182773 1.20188,-2.480744 0.19018,-0.91611 0.1062,-1.998379 -0.15507,-1.998379 -0.0772,0 -0.22658,0.269948 -0.33201,0.599883 -0.10544,0.329936 -0.23741,0.650688 -0.29328,0.712782 -0.0558,0.0621 -0.077,-1.197658 -0.0471,-2.799451 l 0.0545,-2.912352 -0.5091,-1.187663 c -1.21205,-2.827494 -1.58588,-3.051507 -5.09235,-3.051507 -2.24019,0 -2.51298,0.03239 -3.42881,0.407082 -1.48043,0.605694 -1.75977,0.747418 -2.154755,1.093226 -0.491047,0.42991 -0.452225,0.579285 0.150555,0.579285 0.48319,0 0.49388,0.01255 0.19996,0.234865 -0.29261,0.22132 -0.27823,0.235744 0.24937,0.250093 0.47971,0.01305 0.51069,0.03508 0.21633,0.153846 -0.6547,0.264156 -0.54719,0.470638 0.12209,0.2345 0.88222,-0.311265 0.93368,-0.217983 0.12918,0.234171 -0.65466,0.36794 -0.79208,0.677122 -0.14767,0.332244 0.62472,-0.334338 0.50989,-0.04995 -0.19257,0.476921 -0.53386,0.400416 -0.59799,0.491912 -0.28733,0.409927 0.33525,-0.08847 0.28352,0.0016 -0.31994,0.556613 -0.695582,0.639827 -0.642487,0.726307 0.23995,0.39083 0.17597,-0.0669 0.014,0.105352 -0.359925,0.382776 -0.776041,0.575759 -0.85338,0.740601 -0.279946,0.596678 0.219957,-0.05521 0.399921,-0.07522 0.399921,-0.04446 0,0.03075 -0.323936,0.288548 -0.719858,0.572878 -1.023473,0.735002 -0.990537,1.166925 0.156535,2.052812 1.094383,0.845194 1.226843,1.27046 0.661733,2.124411 -0.230093,0.347687 -0.418346,0.812861 -0.418346,1.033723 0,0.578059 0.634656,2.807963 0.925526,3.251886 0.27945,0.426492 1.28315,1.152467 1.59335,1.152467 0.11277,0 0.89574,-0.191611 1.73993,-0.425803 z m 0.70023,-1.848047 c -0.35338,-0.171814 -0.2292,-0.204399 1.0672,-0.280038 1.53891,-0.08978 1.74936,-0.161727 1.60136,-0.547403 -0.16409,-0.42763 -2.78762,-0.558644 -3.66836,-0.183191 -0.30833,0.131437 -0.35719,-0.02482 -0.12346,-0.394798 0.19667,-0.311314 2.8149,-0.332514 3.8127,-0.03086 0.55932,0.169083 0.68038,0.271927 0.63988,0.54357 -0.0275,0.184269 -0.23055,0.469316 -0.45127,0.633441 -0.50619,0.376393 -2.30405,0.538367 -2.87805,0.259291 z m -0.87692,-3.935058 c -0.16686,-0.434831 -0.0751,-1.12667 0.2457,-1.851823 0.22755,-0.514411 0.30983,-0.975689 0.26756,-1.500045 -0.0465,-0.577392 -0.0897,-0.676724 -0.18179,-0.418296 -0.0948,0.266098 -0.29834,0.359289 -0.94742,0.433781 -0.45467,0.05219 -1.09662,0.143044 -1.42656,0.201921 -1.18434,0.211343 -0.41611,-0.427479 0.80865,-0.67243 0.65145,-0.13029 0.64439,-0.597184 -0.0102,-0.672735 -0.2412,-0.02784 -0.43855,-0.117822 -0.43855,-0.199961 0,-0.208171 1.71679,-0.188151 1.84638,0.02152 0.0581,0.09398 0.20521,0.132654 0.32694,0.08594 0.12173,-0.04671 0.29007,0.04351 0.37408,0.200486 0.20983,0.392074 0.032,2.445446 -0.23808,2.749117 -0.1525,0.171461 -0.1806,0.391608 -0.0919,0.719858 0.12035,0.445322 0.17568,0.473043 0.94993,0.475993 0.71284,0.0027 1.35185,0.25844 1.14113,0.456666 -0.0381,0.03586 -0.62591,0.09239 -1.30617,0.125604 -0.93413,0.04562 -1.25714,0.0075 -1.31975,-0.155609 z m 2.25665,-1.649553 c -0.16172,-0.8086 -0.1154,-2.662509 0.0591,-2.364093 0.22467,0.384283 0.4012,2.863995 0.20389,2.863995 -0.0896,0 -0.20796,-0.224956 -0.26295,-0.499902 z m 2.5395,-1.754198 c -1.73601,-0.237249 -1.99951,-0.329307 -2.1011,-0.734074 -0.0533,-0.212338 -0.0495,-0.43347 0.008,-0.491405 0.0579,-0.05793 0.58848,-0.130035 1.17899,-0.160224 0.97021,-0.0496 1.04513,-0.03205 0.77768,0.182128 -0.36822,0.294881 -0.24088,0.522745 0.36673,0.656198 0.47977,0.105375 0.92457,0.485203 0.69686,0.595058 -0.0703,0.0339 -0.48768,0.01244 -0.92759,-0.04769 z m -10.158007,5.838097 c 0,-0.140388 -0.152802,-0.469841 -0.339559,-0.732118 -0.310322,-0.435807 -0.324097,-0.553866 -0.159969,-1.371115 0.293418,-1.461038 0.249364,-1.726948 -0.332818,-2.008907 -0.585882,-0.283752 -1.087279,-0.123174 -1.087279,0.348213 0,0.365188 0.578942,2.662847 0.831329,3.299318 0.104667,0.263949 0.266377,0.532793 0.359355,0.597434 0.299507,0.208222 0.728941,0.129972 0.728941,-0.132825 z"
       style="fill:#000000;stroke-width:0.15996866" />
  </g>
</svg>
