<?xml version="1.0" encoding="UTF-8" standalone="no"?>
<svg
   xmlns:dc="http://purl.org/dc/elements/1.1/"
   xmlns:cc="http://creativecommons.org/ns#"
   xmlns:rdf="http://www.w3.org/1999/02/22-rdf-syntax-ns#"
   xmlns:svg="http://www.w3.org/2000/svg"
   xmlns="http://www.w3.org/2000/svg"
   id="svg6"
   version="1.1"
   fill="none"
   viewBox="0 0 54 64">
  <metadata
     id="metadata12">
    <rdf:RDF>
      <cc:Work
         rdf:about="">
        <dc:format>image/svg+xml</dc:format>
        <dc:type
           rdf:resource="http://purl.org/dc/dcmitype/StillImage" />
        <dc:title></dc:title>
      </cc:Work>
    </rdf:RDF>
  </metadata>
  <defs
     id="defs10" />
  <path
     style="fill:#a0d7a5;stroke-width:0.25170821"
     id="path2"
     d="M 26.999999,37.434283 V 26.565717 H 22.44889 v 6.091972 c 3.4e-5,0.714635 0.195856,1.415838 0.566566,2.028812 0.370711,0.612973 0.9024,1.114664 1.538321,1.451572 z m 0,0 V 26.565717 h 4.551111 v 6.091972 c -2.7e-5,0.714635 -0.19585,1.415838 -0.566563,2.028812 -0.370714,0.612973 -0.90241,1.114664 -1.538327,1.451572 z" />
  <path
     style="fill:#ff8e8e;stroke-width:0.25170821"
     id="path4"
     d="m 26.999998,39.893333 -3.513457,-1.856612 c -1.00162,-0.528127 -1.839232,-1.316583 -2.422937,-2.280773 -0.583708,-0.964189 -0.891473,-2.067727 -0.890267,-3.192139 v -7.329523 c 3.01e-4,-0.298972 0.12027,-0.585613 0.33358,-0.797016 0.213311,-0.211406 0.502534,-0.330305 0.804196,-0.330603 h 11.377772 c 0.301664,2.98e-4 0.590887,0.119197 0.804208,0.330603 0.213295,0.211403 0.333267,0.498044 0.33357,0.797016 v 7.329523 c 0.0012,1.124412 -0.306567,2.22795 -0.890273,3.192139 -0.583705,0.96419 -1.421312,1.752646 -2.422936,2.280773 z M 21.311113,25.234286 v 7.329523 c -9.43e-4,0.920037 0.250941,1.822933 0.728613,2.611816 0.477674,0.788883 1.163104,1.433956 1.982709,1.865959 l 2.977563,1.57358 2.977564,-1.573004 c 0.819705,-0.432053 1.505179,-1.077227 1.982868,-1.866209 0.477663,-0.788982 0.729519,-1.69203 0.728455,-2.612142 v -7.329523 z" />
</svg>
