<svg xmlns="http://www.w3.org/2000/svg" width="74" height="84" viewBox="0 0 54 64" fill="none">
	<path d="M 26.89886,52.646685 V 9.2733918 H 8.8988648 V 33.584685 c 1.34e-4,2.8519 0.774627,5.6502 2.2408152,8.0964 1.46619,2.4462 3.56906,4.4483 6.08418,5.7928 z" fill="#2a5885"/>
	<path d="M 26.89886,52.646685 V 9.2733918 h 18 V 33.584685 c -10e-5,2.8519 -0.7746,5.6502 -2.2408,8.0964 -1.4662,2.4462 -3.5691,4.4483 -6.0842,5.7928 z" fill="#2a5885"/>
	<path d="M27 63.5L13.104 56.0908C9.14251 53.9832 5.82969 50.8367 3.52109 46.9889C1.21248 43.1411 -0.00475439 38.7372 1.39558e-05 34.25V5C0.00120528 3.80689 0.475694 2.66299 1.31935 1.81934C2.16301 0.97568 3.30691 0.501191 4.50001 0.5H49.5C50.6931 0.501191 51.837 0.97568 52.6807 1.81934C53.5243 2.66299 53.9988 3.80689 54 5V34.25C54.0048 38.7372 52.7875 43.1411 50.4789 46.9889C48.1703 50.8367 44.8575 53.9832 40.896 56.0908L27 63.5ZM4.50001 5V34.25C4.49628 37.9216 5.4925 41.5248 7.38173 44.673C9.27097 47.8212 11.9819 50.3955 15.2235 52.1195L27 58.3992L38.7765 52.1218C42.0185 50.3976 44.7296 47.8229 46.6189 44.6743C48.5081 41.5257 49.5042 37.9219 49.5 34.25V5H4.50001Z" fill="#2a5885"/>
</svg>
